# Written by Marlamin's WoW Exporter. Original file: WORLD\GENERIC\HUMAN\PASSIVE DOODADS\FLOWERS\FLOWERSWREATH01.M2
mtllib FLOWERSWREATH01.mtl
v -0.233808 0.103392 0.363153
vt 0.494353 -0.0422927
vn 0.356250000000 -0.838968000000 0.411362000000
v -0.615022 5.55556E-05 -0.0161383
vt 0.367891 -0.473441
vn 0.126032000000 -0.989354000000 0.072764800000
v -0.452792 0.103392 -0.0161383
vt 0.494252 -0.455226
vn 0.534375000000 -0.838968000000 -0.102840000000
v -0.0824372 0.123361 0.686081
vt 0.501831 -0.996006
vn -0.321814000000 0.944928000000 -0.059561000000
v -0.0414864 0.189213 0.578622
vt 0.742692 -0.996489
vn -0.520706000000 0.625092000000 -0.581485000000
v -0.148697 0.108125 0.569786
vt 0.624534 -0.890097
vn 0.000000053425 0.852640000000 -0.522499000000
v -0.214957 0.123361 0.686081
vt 0.501866 -0.797385
vn 0.321814000000 0.944928000000 -0.059560900000
v -0.148697 0.229912 0.512203
vt 0.749168 -0.797723
vn 0.000000074674 0.427423000000 -0.904052000000
v -0.255908 0.189213 0.578622
vt 0.632826 -0.752177
vn 0.520707000000 0.625092000000 -0.581485000000
v 0.224687 0.248666 0.549756
vt 0.742692 -0.996489
vn 0.771660000000 0.625092000000 -0.117478000000
v 0.347625 0.167667 0.619706
vt 0.501831 -0.996006
vn 0.286205000000 0.944928000000 0.158741000000
v 0.319525 0.148928 0.457489
vt 0.624534 -0.890097
vn 0.332350000000 0.852640000000 -0.403173000000
v 0.4734 0.167667 0.516025
vt 0.501866 -0.797385
vn -0.210434000000 0.944928000000 -0.250658000000
v 0.428189 0.248666 0.381994
vt 0.632826 -0.752177
vn -0.031919700000 0.625092000000 -0.779898000000
v 0.274479 0.298722 0.402844
vt 0.749168 -0.797723
vn 0.575048000000 0.427423000000 -0.697588000000
v 0.739447 0.123361 -0.106315
vt 0.501831 -0.996006
vn 0.175778000000 0.944927000000 -0.276069000000
v 0.624467 0.189213 -0.104028
vt 0.742692 -0.996489
vn 0.734204000000 0.625092000000 -0.264963000000
v 0.656436 0.108125 -0.00131111
vt 0.624534 -0.890097
vn 0.484452000000 0.852640000000 0.195731000000
v 0.789086 0.123361 0.0165547
vt 0.501866 -0.797385
vn -0.065329800000 0.944928000000 0.320693000000
v 0.60305 0.229912 0.0202547
vt 0.749168 -0.797723
vn 0.838222000000 0.427422000000 0.338664000000
v 0.704794 0.189213 0.0947797
vt 0.632826 -0.752177
vn 0.344083000000 0.625092000000 0.700619000000
v 0.563825 0.192429 -0.0586422
vt 0.742692 -0.996489
vn -0.755153000000 0.625092000000 0.197495000000
v 0.448867 0.11143 -0.141062
vt 0.501831 -0.996006
vn -0.301230000000 0.944927000000 -0.127955000000
v 0.459856 0.0926897 0.0232028
vt 0.624534 -0.890097
vn -0.288386000000 0.852640000000 0.435704000000
v 0.312942 0.11143 -0.0510969
vt 0.501866 -0.797385
vn 0.235483000000 0.944928000000 0.227288000000
v 0.343894 0.192429 0.0869242
vt 0.632826 -0.752177
vn 0.113267000000 0.625092000000 0.772289000000
v 0.498944 0.242488 0.0822611
vt 0.749168 -0.797723
vn -0.498980000000 0.427423000000 0.753876000000
v 0.467536 0.123361 -0.562769
vt 0.501831 -0.996006
vn 0.256080000000 0.944928000000 -0.203801000000
v 0.359572 0.189213 -0.523178
vt 0.742692 -0.996489
vn 0.780467000000 0.625092000000 -0.011493600000
v 0.423236 0.108125 -0.436467
vt 0.624534 -0.890097
vn 0.394335000000 0.852640000000 0.342790000000
v 0.554478 0.123361 -0.462756
vt 0.501866 -0.797385
vn -0.166178000000 0.944928000000 0.281952000000
v 0.379783 0.229912 -0.398689
vt 0.749168 -0.797723
vn 0.682297000000 0.427423000000 0.593111000000
v 0.500244 0.189213 -0.36135
vt 0.632826 -0.752177
vn 0.097238200000 0.625092000000 0.774471000000
v 0.135847 0.136303 -0.371514
vt 0.501831 -0.996006
vn -0.321814000000 0.944928000000 -0.059561000000
v 0.176797 0.202155 -0.478978
vt 0.742692 -0.996489
vn -0.520706000000 0.625092000000 -0.581485000000
v 0.0695869 0.121067 -0.487808
vt 0.624534 -0.890097
vn 0.000000197369 0.852640000000 -0.522499000000
v 0.00332694 0.136303 -0.371514
vt 0.501866 -0.797385
vn 0.321814000000 0.944928000000 -0.059560900000
v 0.0695869 0.242855 -0.545389
vt 0.749168 -0.797723
vn 0.000000313993 0.427423000000 -0.904052000000
v -0.0376231 0.202155 -0.478978
vt 0.632826 -0.752177
vn 0.520707000000 0.625092000000 -0.581485000000
v -0.476119 0.248666 -0.416183
vt 0.742692 -0.996489
vn -0.612189000000 0.625092000000 -0.484236000000
v -0.611122 0.167667 -0.373975
vt 0.501831 -0.996006
vn -0.079096000000 0.944928000000 -0.317578000000
v -0.473322 0.148928 -0.283894
vt 0.624534 -0.890097
vn -0.521524000000 0.852640000000 0.031897600000
v -0.621072 0.167667 -0.211283
vt 0.501866 -0.797385
vn -0.039803400000 0.944928000000 0.324850000000
v -0.492219 0.248666 -0.152938
vt 0.632826 -0.752177
vn -0.548612000000 0.625092000000 0.555234000000
v -0.402631 0.298722 -0.279569
vt 0.749168 -0.797723
vn -0.902366000000 0.427423000000 0.055191100000
v -0.610364 0.123361 0.336444
vt 0.501831 -0.996006
vn -0.235368000000 0.944928000000 0.227407000000
v -0.499097 0.189213 0.307381
vt 0.742692 -0.996489
vn -0.775772000000 0.625092000000 0.086245000000
v -0.554161 0.108125 0.214972
vt 0.624534 -0.890097
vn -0.425374000000 0.852640000000 -0.303416000000
v -0.687317 0.123361 0.228563
vt 0.501866 -0.797385
vn 0.138389000000 0.944928000000 -0.296581000000
v -0.507286 0.229912 0.181536
vt 0.749168 -0.797723
vn -0.736003000000 0.427423000000 -0.524985000000
v -0.623611 0.189213 0.132821
vt 0.632826 -0.752177
vn -0.171020000000 0.625092000000 -0.761585000000
v -0.256943 0.256055 0.547314
vt 0.742692 -0.996489
vn 0.137637000000 0.625092000000 0.768320000000
v -0.183797 0.175056 0.426242
vt 0.501831 -0.996006
vn -0.151194000000 0.944928000000 0.290262000000
v -0.346689 0.156316 0.450086
vt 0.624534 -0.890097
vn 0.411734000000 0.852640000000 0.321682000000
v -0.284144 0.175056 0.2978
vt 0.501866 -0.797385
vn 0.245063000000 0.944928000000 -0.216924000000
v -0.419314 0.256055 0.339483
vt 0.632826 -0.752177
vn 0.778795000000 0.625092000000 -0.052324300000
v -0.4025 0.306111 0.493689
vt 0.749168 -0.797723
vn 0.712403000000 0.427423000000 0.556590000000
v 0.285278 0.160428 -0.535931
vt 0.370458 -0.473534
vn -0.103842000000 0.978196000000 -0.179860000000
v -0.233808 0.0570944 -0.395431
vt 0.497053 -0.0422927
vn 0.268612000000 0.843440000000 -0.465249000000
v 0.204163 0.0570944 -0.395431
vt 0.497053 -0.455291
vn -0.268612000000 0.843440000000 -0.465249000000
v -0.314922 0.160428 -0.535931
vt 0.370458 -0.0240617
vn -0.103842000000 0.978196000000 0.179860000000
v 0.366392 0.0570944 -0.676428
vt 0.253587 -0.496033
vn 0.268612000000 0.843440000000 0.465249000000
v -0.396036 0.0570944 -0.676428
vt 0.253587 -0.0015769
vn -0.268612000000 0.843440000000 0.465249000000
v 0.423147 0.0570944 -0.0161383
vt 0.496667 -0.0423366
vn -0.534375000000 0.838968000000 -0.102840000000
v 0.585378 0.160428 -0.0161383
vt 0.370307 -0.0241202
vn -0.000000036720 0.992571000000 0.121669000000
v 0.747614 0.0570944 -0.0161383
vt 0.253563 -0.00165313
vn 0.534375000000 0.838968000000 -0.102840000000
v 0.204163 0.0570944 0.363153
vt 0.496769 -0.455291
vn -0.356250000000 0.838968000000 0.411362000000
v 0.285278 0.160428 0.503653
vt 0.370347 -0.473534
vn 0.105368000000 0.992571000000 0.060834500000
v 0.366392 0.0570944 0.644147
vt 0.253569 -0.496033
vn 0.178125000000 0.838968000000 -0.514202000000
v -0.233808 0.0570944 0.363153
vt 0.496769 -0.0422927
vn 0.268612000000 0.843440000000 0.465249000000
v -0.314922 0.160428 0.503653
vt 0.370347 -0.0240617
vn -0.103842000000 0.978196000000 -0.179860000000
v -0.396036 0.0570944 0.644147
vt 0.253569 -0.0015769
vn -0.268612000000 0.843440000000 -0.465249000000
v -0.615022 0.160428 -0.0161383
vt 0.370307 -0.473441
vn 0.207685000000 0.978196000000 0.000000012063
v -0.452792 0.0570944 -0.0161383
vt 0.496667 -0.455226
vn 0.537223000000 0.843440000000 0.000000031203
v -0.777258 0.0570944 -0.0161383
vt 0.253563 -0.495906
vn -0.537223000000 0.843440000000 0.000000007801
v -0.314922 5.55556E-05 -0.535931
vt 0.368043 -0.0240617
vn -0.000000065327 -0.994526000000 0.104493000000
v -0.777258 0.103392 -0.0161383
vt 0.251147 -0.495906
vn -0.537223000000 -0.843440000000 0.000000023402
v -0.396036 0.103392 -0.676428
vt 0.251171 -0.0015769
vn -0.268612000000 -0.843440000000 0.465249000000
v 0.366392 0.103392 -0.676428
vt 0.251171 -0.496033
vn 0.178125000000 -0.838968000000 0.514202000000
v 0.285278 5.55556E-05 -0.535931
vt 0.368043 -0.473534
vn 0.105368000000 -0.992571000000 -0.060834400000
v 0.747614 0.103392 -0.0161383
vt 0.251147 -0.00165313
vn 0.534375000000 -0.838968000000 0.102840000000
v 0.585378 5.55556E-05 -0.0161383
vt 0.367891 -0.0241202
vn 0.000000024480 -0.992571000000 -0.121669000000
v 0.366392 0.103392 0.644147
vt 0.251154 -0.496033
vn 0.356250000000 -0.838968000000 -0.411362000000
v 0.285278 5.55556E-05 0.503653
vt 0.367931 -0.473534
vn -0.105368000000 -0.992571000000 -0.060834500000
v -0.396036 0.103392 0.644147
vt 0.251154 -0.0015769
vn -0.178125000000 -0.838968000000 -0.514202000000
v -0.314922 5.55556E-05 0.503653
vt 0.367931 -0.0240617
vn -0.105368000000 -0.992571000000 0.060834400000
v 0.204163 0.103392 0.363153
vt 0.494353 -0.455291
vn -0.178125000000 -0.838968000000 0.514202000000
v 0.423147 0.103392 -0.0161383
vt 0.494252 -0.0423366
vn -0.534375000000 -0.838968000000 0.102840000000
v 0.204163 0.103392 -0.395431
vt 0.494637 -0.455291
vn -0.356250000000 -0.838968000000 -0.411362000000
v -0.233808 0.103392 -0.395431
vt 0.494637 -0.0422927
vn 0.178125000000 -0.838968000000 -0.514202000000
g FLOWERSWREATH01
o FLOWERSWREATH010
usemtl tex_198201
s 1
f 1/1/1 2/2/2 3/3/3
f 4/4/4 5/5/5 6/6/6
f 7/7/7 4/4/4 6/6/6
f 5/5/5 8/8/8 6/6/6
f 8/8/8 9/9/9 6/6/6
f 9/9/9 7/7/7 6/6/6
f 10/10/10 11/11/11 12/12/12
f 11/11/11 13/13/13 12/12/12
f 13/13/13 14/14/14 12/12/12
f 14/14/14 15/15/15 12/12/12
f 15/15/15 10/10/10 12/12/12
f 16/16/16 17/17/17 18/18/18
f 19/19/19 16/16/16 18/18/18
f 17/17/17 20/20/20 18/18/18
f 20/20/20 21/21/21 18/18/18
f 21/21/21 19/19/19 18/18/18
f 22/22/22 23/23/23 24/24/24
f 23/23/23 25/25/25 24/24/24
f 25/25/25 26/26/26 24/24/24
f 26/26/26 27/27/27 24/24/24
f 27/27/27 22/22/22 24/24/24
f 28/28/28 29/29/29 30/30/30
f 31/31/31 28/28/28 30/30/30
f 29/29/29 32/32/32 30/30/30
f 32/32/32 33/33/33 30/30/30
f 33/33/33 31/31/31 30/30/30
f 34/34/34 35/35/35 36/36/36
f 37/37/37 34/34/34 36/36/36
f 35/35/35 38/38/38 36/36/36
f 38/38/38 39/39/39 36/36/36
f 39/39/39 37/37/37 36/36/36
f 40/40/40 41/41/41 42/42/42
f 41/41/41 43/43/43 42/42/42
f 43/43/43 44/44/44 42/42/42
f 44/44/44 45/45/45 42/42/42
f 45/45/45 40/40/40 42/42/42
f 46/46/46 47/47/47 48/48/48
f 49/49/49 46/46/46 48/48/48
f 47/47/47 50/50/50 48/48/48
f 50/50/50 51/51/51 48/48/48
f 51/51/51 49/49/49 48/48/48
f 52/52/52 53/53/53 54/54/54
f 53/53/53 55/55/55 54/54/54
f 55/55/55 56/56/56 54/54/54
f 56/56/56 57/57/57 54/54/54
f 57/57/57 52/52/52 54/54/54
f 58/58/58 59/59/59 60/60/60
f 61/61/61 59/59/59 58/58/58
f 62/62/62 61/61/61 58/58/58
f 63/63/63 61/61/61 62/62/62
f 58/58/58 60/60/60 64/64/64
f 58/58/58 64/64/64 65/65/65
f 62/62/62 58/58/58 65/65/65
f 62/62/62 65/65/65 66/66/66
f 65/65/65 64/64/64 67/67/67
f 65/65/65 67/67/67 68/68/68
f 66/66/66 65/65/65 68/68/68
f 66/66/66 68/68/68 69/69/69
f 68/68/68 67/67/67 70/70/70
f 68/68/68 70/70/70 71/71/71
f 69/69/69 68/68/68 71/71/71
f 69/69/69 71/71/71 72/72/72
f 73/73/73 70/70/70 74/74/74
f 71/71/71 70/70/70 73/73/73
f 75/75/75 71/71/71 73/73/73
f 72/72/72 71/71/71 75/75/75
f 75/75/75 61/61/61 63/63/63
f 75/75/75 73/73/73 61/61/61
f 73/73/73 59/59/59 61/61/61
f 73/73/73 74/74/74 59/59/59
f 76/76/76 77/77/77 78/78/78
f 76/76/76 78/78/78 79/79/79
f 76/76/76 79/79/79 80/80/80
f 80/80/80 79/79/79 81/81/81
f 80/80/80 81/81/81 82/82/82
f 82/82/82 81/81/81 83/83/83
f 82/82/82 83/83/83 84/84/84
f 84/84/84 83/83/83 85/85/85
f 84/84/84 85/85/85 86/86/86
f 1/1/1 86/86/86 2/2/2
f 87/87/87 86/86/86 1/1/1
f 87/87/87 84/84/84 86/86/86
f 88/88/88 84/84/84 87/87/87
f 88/88/88 82/82/82 84/84/84
f 89/89/89 82/82/82 88/88/88
f 89/89/89 80/80/80 82/82/82
f 90/90/90 80/80/80 89/89/89
f 90/90/90 76/76/76 80/80/80
f 3/3/3 76/76/76 90/90/90
f 86/86/86 85/85/85 77/77/77
f 86/86/86 77/77/77 2/2/2
f 2/2/2 77/77/77 76/76/76
f 3/3/3 2/2/2 76/76/76
