# Written by Marlamin's WoW Exporter. Original file: WORLD\GENERIC\HUMAN\PASSIVE DOODADS\ARMOR\ARMORLEATHERSHOULDERORANGE.M2
mtllib ARMORLEATHERSHOULDERORANGE.mtl
v 0.00668111 0.107586 -0.20599
vt 0.179092 -0.624017
vn 0.049577100000 0.823335000000 0.565386000000
v -0.210365 0.00699083 -0.157307
vt 0.125121 -0.624141
vn -0.450009000000 0.706798000000 0.545828000000
v -0.181562 0.207226 0.0782325
vt 0.125238 -0.499515
vn -0.373277000000 0.770160000000 0.517221000000
v 0.246421 -0.00639389 0.203851
vt 0.247349 -0.623964
vn 0.924335000000 0.375810000000 -0.066114300000
v 0.252409 -0.00679306 -0.086785
vt 0.125092 -0.623794
vn 0.924906000000 0.379692000000 0.019553400000
v 0.167922 0.207798 0.0838164
vt 0.187094 -0.556136
vn 0.773181000000 0.633447000000 -0.030590700000
v 0.173722 0.168134 -0.102537
vt 0.125092 -0.556136
vn 0.557001000000 0.802435000000 0.214121000000
v 0.167335 0.159239 0.258851
vt 0.247434 -0.556093
vn 0.570676000000 0.777062000000 -0.265526000000
v 0.0101564 0.280389 0.0871258
vt 0.187094 -0.501797
vn 0.034781600000 0.999207000000 -0.019403700000
v -0.0014 0.204982 0.270897
vt 0.247434 -0.501797
vn 0.034642100000 0.923814000000 -0.381272000000
v -0.177408 0.170313 0.260948
vt 0.247434 -0.556093
vn -0.523586000000 0.817632000000 -0.239450000000
v -0.181562 0.207226 0.0782328
vt 0.187094 -0.556136
vn -0.727028000000 0.686401000000 -0.016828600000
v -0.262845 0.0100419 0.207061
vt 0.247349 -0.623964
vn -0.903882000000 0.421251000000 -0.074470300000
v 0.00611417 0.206265 -0.105808
vt 0.125092 -0.501797
vn 0.035962900000 0.932615000000 0.359076000000
v -0.174558 0.179906 -0.101543
vt 0.125092 -0.556136
vn -0.485291000000 0.845791000000 0.221653000000
v -0.275309 0.0105692 -0.0840094
vt 0.125092 -0.623794
vn -0.890631000000 0.453384000000 0.034928500000
v 0.0101558 0.280389 0.0871256
vt 0.179123 -0.499611
vn 0.035191300000 0.860722000000 0.507858000000
v 0.167922 0.207798 0.0838158
vt 0.125239 -0.499637
vn 0.464866000000 0.724362000000 0.509116000000
v 0.192079 -0.0084425 -0.148197
vt 0.125121 -0.62415
vn 0.562163000000 0.633382000000 0.531789000000
g ARMORLEATHERSHOULDERORANGE
o ARMORLEATHERSHOULDERORANGE0
usemtl tex_197913
s 1
f 1/1/1 2/2/2 3/3/3
f 4/4/4 5/5/5 6/6/6
f 7/7/7 6/6/6 5/5/5
f 6/6/6 8/8/8 4/4/4
f 6/6/6 9/9/9 8/8/8
f 7/7/7 9/9/9 6/6/6
f 10/10/10 8/8/8 9/9/9
f 9/9/9 11/11/11 10/10/10
f 11/11/11 9/9/9 12/12/12
f 11/11/11 12/12/12 13/13/13
f 9/9/9 7/7/7 14/14/14
f 14/14/14 15/15/15 9/9/9
f 12/12/12 9/9/9 15/15/15
f 12/12/12 15/15/15 16/16/16
f 16/16/16 13/13/13 12/12/12
f 17/17/17 18/18/18 1/1/1
f 19/19/19 1/1/1 18/18/18
f 3/3/3 17/17/17 1/1/1
