# Written by Marlamin's WoW Exporter. Original file: WORLD\GENERIC\HUMAN\PASSIVE DOODADS\ARMOR\ARMORLEATHERSHOULDERBLACK.M2
mtllib ARMORLEATHERSHOULDERBLACK.mtl
v -0.00357333 0.131328 -0.202254
vt 0.179838 -0.749775
vn 0.053026700000 0.823160000000 0.565328000000
v -0.22062 0.0307339 -0.153571
vt 0.125867 -0.7499
vn -0.449842000000 0.705665000000 0.547429000000
v -0.191317 0.232424 0.0823378
vt 0.125984 -0.625273
vn -0.370279000000 0.770986000000 0.518145000000
v -0.0107697 0.22865 0.274615
vt 0.248771 -0.626303
vn 0.043272800000 0.923478000000 -0.381203000000
v 0.157548 0.181482 0.262207
vt 0.248771 -0.6806
vn 0.577797000000 0.772200000000 -0.264306000000
v 0.00102778 0.303964 0.0908206
vt 0.188431 -0.626303
vn 0.043273600000 0.998876000000 -0.019335900000
v -0.187084 0.195472 0.265044
vt 0.248771 -0.6806
vn -0.516137000000 0.822025000000 -0.240579000000
v -0.191317 0.232423 0.0823378
vt 0.188431 -0.680642
vn -0.721159000000 0.692526000000 -0.018393400000
v -0.273989 0.0359303 0.211339
vt 0.248686 -0.748471
vn -0.900124000000 0.428879000000 -0.076412600000
v -0.287072 0.03657 -0.0797039
vt 0.126429 -0.748301
vn -0.886837000000 0.460902000000 0.033014200000
v -0.00405083 0.22988 -0.102106
vt 0.126429 -0.626303
vn 0.043079500000 0.932287000000 0.359146000000
v -0.18493 0.205049 -0.0974528
vt 0.126429 -0.680642
vn -0.478594000000 0.849871000000 0.220605000000
v 0.235112 0.0151867 0.207036
vt 0.248686 -0.748471
vn 0.927621000000 0.367976000000 -0.064133400000
v 0.240473 0.0147444 -0.0836125
vt 0.126429 -0.748301
vn 0.928041000000 0.371855000000 0.021535300000
v 0.15817 0.230039 0.0871717
vt 0.188431 -0.680642
vn 0.778575000000 0.626884000000 -0.028935900000
v 0.163234 0.190333 -0.0991939
vt 0.126429 -0.680642
vn 0.563308000000 0.797700000000 0.215310000000
v 0.00102778 0.303964 0.0908206
vt 0.179869 -0.625369
vn 0.041595200000 0.860594000000 0.507591000000
v 0.15817 0.230039 0.0871719
vt 0.125985 -0.625396
vn 0.467784000000 0.723215000000 0.508073000000
v 0.181825 0.0153 -0.144461
vt 0.125867 -0.749909
vn 0.562330000000 0.634256000000 0.530570000000
g ARMORLEATHERSHOULDERBLACK
o ARMORLEATHERSHOULDERBLACK0
usemtl tex_197913
s 1
f 1/1/1 2/2/2 3/3/3
f 4/4/4 5/5/5 6/6/6
f 6/6/6 7/7/7 4/4/4
f 7/7/7 6/6/6 8/8/8
f 7/7/7 8/8/8 9/9/9
f 10/10/10 9/9/9 8/8/8
f 11/11/11 12/12/12 6/6/6
f 8/8/8 6/6/6 12/12/12
f 8/8/8 12/12/12 10/10/10
f 13/13/13 14/14/14 15/15/15
f 16/16/16 15/15/15 14/14/14
f 15/15/15 5/5/5 13/13/13
f 15/15/15 6/6/6 5/5/5
f 16/16/16 6/6/6 15/15/15
f 6/6/6 16/16/16 11/11/11
f 17/17/17 18/18/18 1/1/1
f 19/19/19 1/1/1 18/18/18
f 3/3/3 17/17/17 1/1/1
