# Written by Marlamin's WoW Exporter. Original file: WORLD\GENERIC\HUMAN\PASSIVE DOODADS\ARMOR\ARMORSHOULDERTRIM.M2
mtllib ARMORSHOULDERTRIM.mtl
v 0.00766139 0.117 -0.207345
vt 0.0548258 -0.749775
vn 0.053026400000 0.823160000000 0.565329000000
v -0.209385 0.0164047 -0.158662
vt 0.000855079 -0.7499
vn -0.449842000000 0.705665000000 0.547429000000
v -0.180082 0.218094 0.0772472
vt 0.000971636 -0.625273
vn -0.370279000000 0.770986000000 0.518145000000
v 0.246347 0.000855556 0.201946
vt 0.12331 -0.748471
vn 0.927621000000 0.367976000000 -0.064133400000
v 0.251708 0.000411111 -0.0887031
vt 0.00105342 -0.748301
vn 0.928041000000 0.371855000000 0.021535300000
v 0.169405 0.21571 0.0820811
vt 0.0630554 -0.680642
vn 0.778575000000 0.626884000000 -0.028935900000
v 0.17447 0.176004 -0.104284
vt 0.00105342 -0.680642
vn 0.563308000000 0.797700000000 0.215310000000
v 0.168784 0.167153 0.257116
vt 0.123395 -0.6806
vn 0.577797000000 0.772200000000 -0.264306000000
v 0.0122664 0.289633 0.0857297
vt 0.0630554 -0.626303
vn 0.043273700000 0.998876000000 -0.019335900000
v 0.000461111 0.214321 0.269525
vt 0.123395 -0.626303
vn 0.043272900000 0.923478000000 -0.381203000000
v -0.175849 0.181143 0.259953
vt 0.123395 -0.6806
vn -0.516136000000 0.822025000000 -0.240579000000
v -0.180082 0.218094 0.0772475
vt 0.0630554 -0.680642
vn -0.721158000000 0.692526000000 -0.018393400000
v -0.262754 0.0216019 0.206248
vt 0.12331 -0.748471
vn -0.900124000000 0.428879000000 -0.076412600000
v 0.00718361 0.215551 -0.107196
vt 0.00105342 -0.626303
vn 0.043079600000 0.932287000000 0.359146000000
v -0.173694 0.190721 -0.102543
vt 0.00105342 -0.680642
vn -0.478594000000 0.849871000000 0.220605000000
v -0.275838 0.0222417 -0.0847944
vt 0.00105342 -0.748301
vn -0.886837000000 0.460902000000 0.033014200000
v 0.0122664 0.289633 0.0857294
vt 0.0548567 -0.625369
vn 0.041594700000 0.860594000000 0.507591000000
v 0.169405 0.21571 0.0820808
vt 0.000972724 -0.625396
vn 0.467784000000 0.723215000000 0.508074000000
v 0.19306 0.000966667 -0.149553
vt 0.000854766 -0.749909
vn 0.562330000000 0.634255000000 0.530570000000
g ARMORSHOULDERTRIM
o ARMORSHOULDERTRIM0
usemtl tex_197868
s 1
f 1/1/1 2/2/2 3/3/3
f 4/4/4 5/5/5 6/6/6
f 7/7/7 6/6/6 5/5/5
f 6/6/6 8/8/8 4/4/4
f 6/6/6 9/9/9 8/8/8
f 7/7/7 9/9/9 6/6/6
f 10/10/10 8/8/8 9/9/9
f 9/9/9 11/11/11 10/10/10
f 11/11/11 9/9/9 12/12/12
f 11/11/11 12/12/12 13/13/13
f 9/9/9 7/7/7 14/14/14
f 14/14/14 15/15/15 9/9/9
f 12/12/12 9/9/9 15/15/15
f 12/12/12 15/15/15 16/16/16
f 16/16/16 13/13/13 12/12/12
f 17/17/17 18/18/18 1/1/1
f 19/19/19 1/1/1 18/18/18
f 3/3/3 17/17/17 1/1/1
