# Written by Marlamin's WoW Exporter. Original file: WORLD\EXPANSION02\DOODADS\GENERIC\BARBERSHOP\BARBERSHOP_POSTER01.M2
mtllib BARBERSHOP_POSTER01.mtl
v 0.04602589 0.4121999 -0.527071
vt 0.9960466 -0.5377866
vn 0.588394300000 -0.589101500000 -0.553851600000
v 0.1429186 0.4576814 -0.5405701
vt 0.9960466 -0.5057003
vn 0.349021500000 -0.563096900000 -0.749070000000
v 0.06792352 0.4879526 -0.4694807
vt 0.9502212 -0.5057003
vn 0.601112500000 -0.658493000000 -0.452825200000
v 0.03526089 -0.4542824 0.5529736
vt 0.5040357 -0.9792911
vn 0.173879600000 0.980353400000 0.093130190000
v 0.08481193 -0.4423227 0.5779673
vt 0.5040357 -0.9977111
vn -0.191479000000 0.975596400000 0.107458900000
v 0.09631712 -0.4744841 0.1929587
vt 0.6680393 -0.9977111
vn -0.185815900000 0.980871300000 0.058000740000
v 0.04676607 -0.4842386 0.1846274
vt 0.6680393 -0.9792911
vn 0.294852100000 0.954772400000 0.038364880000
v 0.04676607 -0.4842386 -0.1837187
vt 0.8320429 -0.9792911
vn 0.294852000000 0.954772500000 -0.038364880000
v 0.09631711 -0.4744841 -0.19205
vt 0.8320429 -0.9977111
vn -0.185815900000 0.980871300000 -0.058000750000
v 0.03526089 -0.4542824 -0.5520648
vt 0.9960466 -0.9792911
vn 0.173879500000 0.980353400000 -0.093130190000
v 0.08481193 -0.4423227 -0.5770586
vt 0.9960466 -0.9977111
vn -0.191479000000 0.975596400000 -0.107458900000
v 0.01150517 -0.4416601 -0.1753874
vt 0.8320429 -0.960871
vn 0.939468100000 0.342627700000 0.002428842000
v -1.111678E-08 -0.413909 -0.527071
vt 0.9960466 -0.960871
vn 0.933833200000 0.357708600000 -0.000394861700
v 0.01876788 -0.02354725 -0.527071
vt 0.9960466 -0.7538339
vn 0.999193500000 -0.002426038000 0.040081520000
v 0.03027307 -0.0008545245 -0.1753874
vt 0.8320429 -0.7419825
vn 0.999763000000 0.001161540000 0.021739810000
v 0.01150517 -0.4416601 0.1762962
vt 0.6680393 -0.960871
vn 0.939468100000 0.342627700000 -0.002428845000
v -1.111678E-08 -0.413909 0.5279797
vt 0.5040357 -0.960871
vn 0.933809600000 0.357770100000 0.000291109600
v 0.03027306 -0.0008545245 0.1762961
vt 0.6680393 -0.7419825
vn 0.999766100000 0.000986544600 -0.021605100000
v 0.01876788 -0.02021893 0.5279797
vt 0.5040357 -0.7531731
vn 0.999192200000 -0.002053888000 -0.040134990000
v 1.000325E-08 0.3734712 0.5279797
vt 0.5040357 -0.5454752
vn 0.953616800000 -0.251235300000 0.165818600000
v 0.04602589 0.4121999 0.5279797
vt 0.5040357 -0.5377866
vn 0.538506700000 -0.613816000000 0.577269800000
v 1.131551E-08 0.4184556 0.4487029
vt 0.5410056 -0.5377866
vn 0.907057700000 -0.379753300000 0.181752000000
v 0.01150519 0.439951 0.1762961
vt 0.6680393 -0.5377866
vn 0.962305900000 -0.271777200000 -0.010223690000
v 0.01150519 0.439951 -0.1753874
vt 0.8320429 -0.5377866
vn 0.962364300000 -0.271521600000 0.011446300000
v 9.824693E-09 0.3668145 -0.527071
vt 0.9960466 -0.5467968
vn 0.963507600000 -0.227574500000 -0.140936100000
v 0.1429186 0.4576814 0.5414789
vt 0.5040357 -0.5057003
vn 0.357696900000 -0.587085400000 0.726211800000
v 0.06792352 0.4883693 0.465401
vt 0.551986 -0.5057003
vn 0.587271300000 -0.685982500000 0.429581700000
v 0.04546695 0.494151 0.1846274
vt 0.6680393 -0.5217435
vn 0.205780700000 -0.978596500000 0.001788190000
v 0.04546695 0.494151 -0.1837187
vt 0.8320429 -0.5217435
vn 0.205242100000 -0.978709500000 -0.001838858000
v 1.137977E-08 0.4199255 -0.4291662
vt 0.9503899 -0.5377866
vn 0.923427300000 -0.356898100000 -0.141087700000
v 0.07942871 0.4752015 0.1929587
vt 0.6680393 -0.5057003
vn -0.489405900000 -0.871934500000 -0.014559950000
v 0.07942871 0.4752015 -0.19205
vt 0.8320429 -0.5057003
vn -0.489242200000 -0.872044600000 0.013429380000
g BARBERSHOP_POSTER01
o BARBERSHOP_POSTER010
usemtl tex_194761
s 1
f 1/1/1 2/2/2 3/3/3
f 4/4/4 5/5/5 6/6/6
f 6/6/6 7/7/7 4/4/4
f 8/8/8 7/7/7 6/6/6
f 6/6/6 9/9/9 8/8/8
f 10/10/10 8/8/8 9/9/9
f 9/9/9 11/11/11 10/10/10
f 7/7/7 8/8/8 12/12/12
f 13/13/13 12/12/12 8/8/8
f 8/8/8 10/10/10 13/13/13
f 13/13/13 14/14/14 15/15/15
f 15/15/15 12/12/12 13/13/13
f 16/16/16 12/12/12 15/15/15
f 12/12/12 16/16/16 7/7/7
f 7/7/7 16/16/16 17/17/17
f 17/17/17 4/4/4 7/7/7
f 17/17/17 16/16/16 18/18/18
f 18/18/18 19/19/19 17/17/17
f 20/20/20 19/19/19 18/18/18
f 15/15/15 18/18/18 16/16/16
f 21/21/21 20/20/20 22/22/22
f 22/22/22 20/20/20 23/23/23
f 18/18/18 23/23/23 20/20/20
f 24/24/24 23/23/23 18/18/18
f 18/18/18 15/15/15 24/24/24
f 25/25/25 24/24/24 15/15/15
f 15/15/15 14/14/14 25/25/25
f 26/26/26 21/21/21 27/27/27
f 27/27/27 21/21/21 22/22/22
f 27/27/27 22/22/22 28/28/28
f 23/23/23 28/28/28 22/22/22
f 29/29/29 28/28/28 23/23/23
f 23/23/23 24/24/24 29/29/29
f 29/29/29 24/24/24 30/30/30
f 25/25/25 30/30/30 24/24/24
f 25/25/25 1/1/1 30/30/30
f 28/28/28 31/31/31 27/27/27
f 32/32/32 31/31/31 28/28/28
f 28/28/28 29/29/29 32/32/32
f 3/3/3 32/32/32 29/29/29
f 29/29/29 30/30/30 3/3/3
f 3/3/3 30/30/30 1/1/1
