# Written by Marlamin's WoW Exporter. Original file: WORLD\GENERIC\ORC\PASSIVE DOODADS\BOWLS\BOWLWOOD02.M2
mtllib BOWLWOOD02.mtl
v -0.00133889 0.0264222 -0.0017
vt 0.461353 -0.471014
vn -0.000000002774 1.000000000000 -0.000000016643
v 0.302639 0.177614 -0.177209
vt 0.728741 -0.938158
vn -0.342594000000 0.918426000000 -0.197797000000
v -0.00133889 0.177614 -0.352711
vt 0.94782 -0.5
vn 0.000000030570 0.918426000000 -0.395594000000
v -0.138271 0 0.0773525
vt 0.362668 -0.273646
vn -0.403291000000 -0.845798000000 -0.349260000000
v -0.00133889 0.177614 0.349303
vt 0.0473489 -0.5
vn -0.129264000000 -0.729479000000 -0.671677000000
v -0.305325 0.177614 0.173802
vt 0.271259 -0.0618417
vn -0.646322000000 -0.729479000000 -0.223892000000
v -0.00133889 0 0.156409
vt 0.263984 -0.471014
vn 0.081116300000 -0.903197000000 -0.421492000000
v -0.138271 0 -0.0807606
vt 0.560037 -0.273646
vn -0.286572000000 -0.952902000000 0.099271400000
v 0.135589 0 0.0773525
vt 0.362668 -0.668383
vn 0.405581000000 -0.903197000000 -0.140497000000
v 0.135589 0 -0.0807606
vt 0.560037 -0.668383
vn 0.324465000000 -0.903197000000 0.280995000000
v -0.00133889 0 -0.159817
vt 0.658721 -0.471015
vn -0.100823000000 -0.845798000000 0.523890000000
v -0.305325 0.177614 -0.177209
vt 0.728741 -0.0618418
vn -0.517057000000 -0.729479000000 0.447785000000
v -0.00133889 0.177614 -0.352711
vt 0.94782 -0.5
vn 0.129264000000 -0.729479000000 0.671677000000
v 0.302639 0.177614 -0.177209
vt 0.728741 -0.938158
vn 0.646322000000 -0.729479000000 0.223893000000
v 0.302639 0.177614 0.173802
vt 0.271259 -0.938158
vn 0.517057000000 -0.729479000000 -0.447785000000
v 0.302639 0.177614 0.173802
vt 0.271259 -0.938158
vn -0.342594000000 0.918426000000 0.197797000000
v -0.00133889 0.177614 0.349303
vt 0.0473489 -0.5
vn -0.000000022927 0.918426000000 0.395594000000
v -0.305325 0.177614 0.173802
vt 0.271259 -0.0618417
vn 0.342594000000 0.918426000000 0.197797000000
v -0.305325 0.177614 -0.177209
vt 0.728741 -0.0618418
vn 0.342594000000 0.918426000000 -0.197797000000
g BOWLWOOD02
o BOWLWOOD020
usemtl tex_199123
s 1
f 1/1/1 2/2/2 3/3/3
f 4/4/4 5/5/5 6/6/6
f 4/4/4 7/7/7 5/5/5
f 8/8/8 7/7/7 4/4/4
f 8/8/8 9/9/9 7/7/7
f 8/8/8 10/10/10 9/9/9
f 8/8/8 11/11/11 10/10/10
f 8/8/8 4/4/4 6/6/6
f 8/8/8 6/6/6 12/12/12
f 11/11/11 8/8/8 12/12/12
f 11/11/11 12/12/12 13/13/13
f 10/10/10 11/11/11 13/13/13
f 10/10/10 13/13/13 14/14/14
f 9/9/9 10/10/10 14/14/14
f 9/9/9 14/14/14 15/15/15
f 7/7/7 9/9/9 15/15/15
f 7/7/7 15/15/15 5/5/5
f 1/1/1 16/16/16 2/2/2
f 1/1/1 17/17/17 16/16/16
f 1/1/1 18/18/18 17/17/17
f 1/1/1 19/19/19 18/18/18
f 1/1/1 3/3/3 19/19/19
