# Written by Marlamin's WoW Exporter. Original file: WORLD\DUNGEON\GOLDMINE\PASSIVEDOODADS\CAVESPIDERWEBS\CAVESPIDERWEB01.M2
mtllib CAVESPIDERWEB01.mtl
v 0 0.342767 0.362811
vt 0.000499755 -0.000499606
vn 1.000000000000 0.000000119209 0.000000000000
v 0 -0.342767 0.362811
vt 0.000499547 -0.9995
vn 1.000000000000 0.000000119209 0.000000000000
v 0 0.342767 -0.362811
vt 0.999501 -0.000499785
vn 1.000000000000 0.000000119209 0.000000000000
v 0 -0.342767 -0.362811
vt 0.9995 -0.9995
vn 1.000000000000 0.000000119209 0.000000000000
g CAVESPIDERWEB01
o CAVESPIDERWEB010
usemtl tex_190884
s 1
f 1/1/1 2/2/2 3/3/3
f 4/4/4 3/3/3 2/2/2
