# Written by Marlamin's WoW Exporter. Original file: WORLD\CRITTER\FIREFLIES\FIREFLIES01.M2
mtllib FIREFLIES01.mtl
v 0.02777565 1.420632 -0.9925817
vt 0.0004995167 -0.9995003
vn 1.000000000000 0.000000000000 0.000000000000
v 0.02777565 1.420632 -1.063959
vt 0.9995003 -0.9995005
vn 1.000000000000 0.000000000000 0.000000000000
v 0.02777565 1.492009 -1.063959
vt 0.9995005 -0.0004997253
vn 1.000000000000 0.000000000000 0.000000000000
v 0.02777565 1.492009 -0.9925817
vt 0.0004997551 -0.0004994869
vn 1.000000000000 0.000000000000 0.000000000000
v -0.3268431 1.824567 -0.319126
vt 0.0004995167 -0.9995003
vn -1.000000000000 -0.000000119209 0.000000000000
v -0.3268431 1.921935 -0.319126
vt 0.9995003 -0.9995005
vn -1.000000000000 -0.000000119209 0.000000000000
v -0.3268431 1.921935 -0.4164943
vt 0.9995005 -0.0004997253
vn -1.000000000000 -0.000000119209 0.000000000000
v -0.3268431 1.824567 -0.4164943
vt 0.0004997551 -0.0004994869
vn -1.000000000000 -0.000000119209 0.000000000000
g FIREFLIES01
o FIREFLIES010
usemtl tex_190732
s 1
f 1/1/1 2/2/2 3/3/3
f 3/3/3 4/4/4 1/1/1
o FIREFLIES011
usemtl tex_190732
s 1
f 5/5/5 6/6/6 7/7/7
f 7/7/7 8/8/8 5/5/5
