# Written by Marlamin's WoW Exporter. Original file: WORLD\EXPANSION02\DOODADS\GENERIC\FORSAKEN\FK_PAINTING03.M2
mtllib FK_PAINTING03.mtl
v 0.06282122 1.125334 0.0111359
vt 0.2500544 -0.3788061
vn 0.994668900000 -0.103120100000 0.000000000000
v 0.06282122 1.125334 0.6756184
vt 0.001006071 -0.3788061
vn 0.993376300000 -0.089115130000 0.072540590000
v 0.06282122 0.6811164 0.6756184
vt 0.001006071 -0.5302773
vn 0.996194500000 0.000000000000 0.087157990000
v 2.966086E-08 0.6785615 0.0111359
vt 0.7458403 -0.9945524
vn -1.000000000000 0.000000043711 0.000000000000
v 1.035517E-08 0.2368987 0.6756184
vt 0.9138512 -0.8781977
vn -0.967538400000 -0.195668600000 -0.159947500000
v 2.977254E-08 0.6811163 0.6756184
vt 0.7456766 -0.8773533
vn -0.977067100000 0.000000038162 -0.212931600000
v 1.035517E-08 0.2368987 0.0111359
vt 0.7456769 -0.8774074
vn -0.969139200000 -0.246514000000 0.000000000000
v 1.035517E-08 0.2368987 -0.6533465
vt 0.6006802 -0.8781977
vn -0.967538400000 -0.195668500000 0.159947500000
v 2.977254E-08 0.6811163 -0.6533465
vt 0.7456592 -0.8773756
vn -0.977067100000 0.000000038162 0.212931600000
v 4.91899E-08 1.125334 -0.6533465
vt 0.6006802 -0.8781877
vn -0.967538500000 0.195668500000 0.159947500000
v 4.91899E-08 1.125334 0.0111359
vt 0.7456769 -0.8774072
vn -0.969139200000 0.246514000000 0.000000000000
v 4.91899E-08 1.125334 0.6756184
vt 0.9138512 -0.8781877
vn -0.967538500000 0.195668500000 -0.159947400000
v 0.1296846 0.007743942 0.946319
vt 0.5040198 -0.8766285
vn -0.938746300000 -0.245104400000 -0.242238100000
v 0.1022061 0.2368987 0.898975
vt 0.5834496 -0.8766392
vn -0.909251100000 -0.012331180000 -0.416065300000
v 1.035517E-08 0.2368987 0.6756184
vt 0.5834419 -0.9988735
vn -0.967538400000 -0.195668600000 -0.159947500000
v 0.1022061 0.6811163 0.898975
vt 0.9907016 -0.8766624
vn -0.909320300000 0.000000022441 -0.416096900000
v 2.977254E-08 0.6811163 0.6756184
vt 0.9906757 -0.9989846
vn -0.977067100000 0.000000038162 -0.212931600000
v 0.1022061 1.125334 0.898975
vt 0.5834496 -0.876631
vn -0.909251200000 0.012331200000 -0.416065200000
v 4.91899E-08 1.125334 0.6756184
vt 0.5834419 -0.998703
vn -0.967538500000 0.195668500000 -0.159947400000
v 0.1296846 1.354489 0.946319
vt 0.5040198 -0.8766204
vn -0.938746300000 0.245104400000 -0.242238000000
v 0.1022061 1.31324 0.6756184
vt 0.5834419 -0.8766204
vn -0.878429100000 0.477794900000 -0.008625466000
v 0.1022061 0.04899232 0.6756184
vt 0.5834419 -0.8766285
vn -0.878428900000 -0.477795100000 -0.008625452000
v 1.035517E-08 0.2368987 0.0111359
vt 0.9906998 -0.9988735
vn -0.969139200000 -0.246514000000 0.000000000000
v 0.1022061 0.04899232 0.0111359
vt 0.9906998 -0.8766285
vn -0.878461700000 -0.477812900000 0.000000000000
v 0.1022061 0.04899232 -0.6533465
vt 0.5834331 -0.8766285
vn -0.878428900000 -0.477795100000 0.008625451000
v 1.035517E-08 0.2368987 -0.6533465
vt 0.5834331 -0.9988735
vn -0.967538400000 -0.195668500000 0.159947500000
v 0.1296846 1.354489 -0.9240473
vt 0.5031708 -0.8766204
vn -0.938746300000 0.245104400000 0.242238000000
v 0.1022061 1.125334 -0.8767031
vt 0.5834408 -0.876631
vn -0.909251100000 0.012331120000 0.416065300000
v 4.91899E-08 1.125334 -0.6533465
vt 0.5834331 -0.998703
vn -0.967538500000 0.195668500000 0.159947500000
v 0.1022061 0.6811163 -0.8767031
vt 0.9906931 -0.8766624
vn -0.909320200000 0.000000022441 0.416097000000
v 2.977254E-08 0.6811163 -0.6533465
vt 0.9906672 -0.9989846
vn -0.977067100000 0.000000038162 0.212931600000
v 0.1022061 0.2368987 -0.8767031
vt 0.5834408 -0.8766392
vn -0.909251100000 -0.012331090000 0.416065400000
v 0.1296846 0.007743942 -0.9240473
vt 0.5031708 -0.8766285
vn -0.938746300000 -0.245104400000 0.242238100000
v 0.1022061 1.31324 0.0111359
vt 0.9906998 -0.8766204
vn -0.878461700000 0.477812800000 0.000000000000
v 4.91899E-08 1.125334 0.0111359
vt 0.9906998 -0.998703
vn -0.969139200000 0.246514000000 0.000000000000
v 0.1022061 1.31324 -0.6533465
vt 0.5834331 -0.8766204
vn -0.878429100000 0.477794900000 0.008625466000
v 0.06282122 1.125334 -0.6533465
vt 0.5823091 -0.9993262
vn 0.993376300000 -0.089115120000 -0.072540600000
v 0.1022061 1.125334 -0.8767031
vt 0.582624 -0.876902
vn 0.983866800000 -0.043685280000 -0.173486900000
v 0.1296846 1.354489 -0.9240473
vt 0.5060889 -0.8767497
vn 0.982397300000 -0.138278300000 -0.125597200000
v 0.06282122 0.6811164 -0.6533465
vt 0.9912276 -0.9993505
vn 0.996194500000 -0.000000005155 -0.087158010000
v 0.06282122 0.2368988 -0.6533465
vt 0.5823091 -0.999289
vn 0.993376300000 0.089115080000 -0.072540590000
v 0.1022061 0.04899232 -0.6533465
vt 0.5823091 -0.8767431
vn 0.978108200000 0.205009700000 -0.035711530000
v 0.1296846 0.007743942 -0.9240473
vt 0.5060889 -0.8767431
vn 0.982397300000 0.138278200000 -0.125597100000
v 0.1022061 0.2368987 -0.8767031
vt 0.582624 -0.8768954
vn 0.983866800000 0.043685310000 -0.173486800000
v 0.1022061 0.6811163 -0.8767031
vt 0.9911256 -0.8769109
vn 0.984807000000 -0.000000014682 -0.173652600000
v 0.06282122 0.2368988 0.0111359
vt 0.99121 -0.9993279
vn 0.994668900000 0.103120000000 0.000000000000
v 0.1022061 0.04899232 0.0111359
vt 0.9911833 -0.8767431
vn 0.978732500000 0.205140500000 0.000000000000
v 0.06282122 0.2368988 0.6756184
vt 0.5824056 -0.999289
vn 0.993376300000 0.089115080000 0.072540570000
v 0.1022061 0.04899232 0.6756184
vt 0.5824056 -0.8767431
vn 0.978108200000 0.205009700000 0.035711530000
v 0.1296846 0.007743942 0.946319
vt 0.5070671 -0.8767431
vn 0.982397300000 0.138278200000 0.125597100000
v 0.1022061 0.2368987 0.898975
vt 0.5827205 -0.8768954
vn 0.983866800000 0.043685330000 0.173486800000
v 0.06282122 0.6811164 0.6756184
vt 0.9912303 -0.9993505
vn 0.996194500000 0.000000000000 0.087157990000
v 0.1022061 0.6811163 0.898975
vt 0.9911361 -0.8769109
vn 0.984807000000 -0.000000004412 0.173652600000
v 0.06282122 1.125334 0.6756184
vt 0.5824056 -0.9993262
vn 0.993376300000 -0.089115130000 0.072540590000
v 0.1022061 1.125334 0.898975
vt 0.5827205 -0.876902
vn 0.983866800000 -0.043685310000 0.173486900000
v 0.1296846 1.354489 0.946319
vt 0.5070671 -0.8767497
vn 0.982397300000 -0.138278200000 0.125597200000
v 0.1022061 1.31324 0.6756184
vt 0.5824056 -0.8767497
vn 0.978108200000 -0.205009800000 0.035711520000
v 0.06282122 1.125334 0.0111359
vt 0.99121 -0.9993376
vn 0.994668900000 -0.103120100000 0.000000000000
v 0.1022061 1.31324 0.0111359
vt 0.9911833 -0.8767497
vn 0.978732500000 -0.205140600000 0.000000000000
v 0.1022061 1.31324 -0.6533465
vt 0.5823091 -0.8767497
vn 0.978108200000 -0.205009800000 -0.035711520000
v 0.06282122 0.6811164 -0.6533465
vt 0.4991026 -0.5302773
vn 0.996194500000 -0.000000005155 -0.087158010000
v 0.06282122 1.125334 -0.6533465
vt 0.4991026 -0.3788061
vn 0.993376300000 -0.089115120000 -0.072540600000
v 0.06282122 0.2368988 0.0111359
vt 0.2500544 -0.6817485
vn 0.994668900000 0.103120000000 0.000000000000
v 0.06282122 0.2368988 -0.6533465
vt 0.4991026 -0.6817485
vn 0.993376300000 0.089115080000 -0.072540590000
v 0.06282122 0.2368988 0.6756184
vt 0.001006071 -0.6817485
vn 0.993376300000 0.089115080000 0.072540570000
g FK_PAINTING03
o FK_PAINTING030
usemtl tex_194842
s 1
f 1/1/1 2/2/2 3/3/3
f 4/4/4 5/5/5 6/6/6
f 7/7/7 5/5/5 4/4/4
f 4/4/4 8/8/8 7/7/7
f 4/4/4 9/9/9 8/8/8
f 4/4/4 10/10/10 9/9/9
f 11/11/11 10/10/10 4/4/4
f 4/4/4 12/12/12 11/11/11
f 12/12/12 4/4/4 6/6/6
f 13/13/13 14/14/14 15/15/15
f 15/15/15 14/14/14 16/16/16
f 16/16/16 17/17/17 15/15/15
f 17/17/17 16/16/16 18/18/18
f 18/18/18 19/19/19 17/17/17
f 20/20/20 19/19/19 18/18/18
f 19/19/19 20/20/20 21/21/21
f 15/15/15 22/22/22 13/13/13
f 23/23/23 24/24/24 22/22/22
f 22/22/22 15/15/15 23/23/23
f 25/25/25 24/24/24 23/23/23
f 23/23/23 26/26/26 25/25/25
f 27/27/27 28/28/28 29/29/29
f 29/29/29 28/28/28 30/30/30
f 30/30/30 31/31/31 29/29/29
f 31/31/31 30/30/30 32/32/32
f 32/32/32 26/26/26 31/31/31
f 33/33/33 26/26/26 32/32/32
f 26/26/26 33/33/33 25/25/25
f 19/19/19 21/21/21 34/34/34
f 34/34/34 35/35/35 19/19/19
f 29/29/29 35/35/35 34/34/34
f 34/34/34 36/36/36 29/29/29
f 29/29/29 36/36/36 27/27/27
f 37/37/37 38/38/38 39/39/39
f 38/38/38 37/37/37 40/40/40
f 41/41/41 42/42/42 43/43/43
f 43/43/43 44/44/44 41/41/41
f 40/40/40 41/41/41 44/44/44
f 44/44/44 45/45/45 40/40/40
f 40/40/40 45/45/45 38/38/38
f 42/42/42 41/41/41 46/46/46
f 46/46/46 47/47/47 42/42/42
f 47/47/47 46/46/46 48/48/48
f 48/48/48 49/49/49 47/47/47
f 50/50/50 49/49/49 48/48/48
f 48/48/48 51/51/51 50/50/50
f 48/48/48 52/52/52 53/53/53
f 53/53/53 51/51/51 48/48/48
f 54/54/54 55/55/55 53/53/53
f 53/53/53 52/52/52 54/54/54
f 56/56/56 55/55/55 54/54/54
f 54/54/54 57/57/57 56/56/56
f 57/57/57 54/54/54 58/58/58
f 58/58/58 59/59/59 57/57/57
f 59/59/59 58/58/58 37/37/37
f 37/37/37 60/60/60 59/59/59
f 39/39/39 60/60/60 37/37/37
f 61/61/61 62/62/62 1/1/1
f 63/63/63 61/61/61 1/1/1
f 63/63/63 64/64/64 61/61/61
f 3/3/3 65/65/65 63/63/63
f 1/1/1 3/3/3 63/63/63
