# Written by Marlamin's WoW Exporter. Original file: WORLD\EXPANSION02\DOODADS\GENERIC\FORSAKEN\FK_PAINTING01.M2
mtllib FK_PAINTING01.mtl
v 0.06282122 1.063293 -0.004236537
vt 0.7500311 -0.002392292
vn 0.991142800000 -0.132742300000 -0.003919320000
v 0.06282122 1.063293 0.6602459
vt 0.5009828 -0.002392292
vn 0.978981200000 -0.146307900000 0.142090900000
v 0.06282122 0.6190754 0.6602459
vt 0.5009828 -0.1856725
vn 0.993286000000 0.000000000000 0.115684700000
v 2.694895E-08 0.6165206 -0.004236539
vt 0.7458403 -0.9945524
vn -1.000000000000 0.000000043711 0.000000000000
v 7.643258E-09 0.1748578 0.6602458
vt 0.9138512 -0.8781977
vn -0.930881100000 -0.264142700000 -0.252367000000
v 2.706063E-08 0.6190754 0.6602459
vt 0.7456766 -0.8773533
vn -0.964988400000 -0.011713920000 -0.262031000000
v 7.643258E-09 0.1748578 -0.004236539
vt 0.7456769 -0.8774074
vn -0.955152400000 -0.296114700000 -0.000000000330
v 7.643258E-09 0.1748578 -0.668719
vt 0.6006802 -0.8781977
vn -0.930513500000 -0.273790400000 0.243276600000
v 2.706063E-08 0.6190754 -0.668719
vt 0.7456592 -0.8773756
vn -0.964988400000 0.011714010000 0.262031100000
v 4.647799E-08 1.063293 -0.668719
vt 0.6006802 -0.8781877
vn -0.931054400000 0.270117000000 0.245305000000
v 4.647799E-08 1.063293 -0.004236539
vt 0.7456769 -0.8774072
vn -0.951293900000 0.308285400000 0.000000000000
v 4.647799E-08 1.063293 0.6602458
vt 0.9138512 -0.8781877
vn -0.930571600000 0.279735100000 -0.236188300000
v 0.1296846 0.1112987 0.7477193
vt 0.5040198 -0.8766285
vn -0.624703000000 -0.618338400000 -0.476868700000
v 0.1022061 0.1748578 0.8836026
vt 0.5834496 -0.8766392
vn -0.878546200000 -0.257954600000 -0.402015000000
v 7.643258E-09 0.1748578 0.6602458
vt 0.5834419 -0.9988735
vn -0.930881100000 -0.264142700000 -0.252367000000
v 0.1022061 0.6190754 0.8270344
vt 0.9907016 -0.8766624
vn -0.862085800000 -0.024912640000 -0.506149600000
v 2.706063E-08 0.6190754 0.6602459
vt 0.9906757 -0.9989846
vn -0.964988400000 -0.011713920000 -0.262031000000
v 0.1022061 1.063293 0.8836026
vt 0.5834496 -0.876631
vn -0.862446900000 0.281450700000 -0.420679000000
v 4.647799E-08 1.063293 0.6602458
vt 0.5834419 -0.998703
vn -0.930571600000 0.279735100000 -0.236188300000
v 0.1296845 1.126852 0.7477193
vt 0.5040198 -0.8766204
vn -0.624703200000 0.618338400000 -0.476868500000
v 0.1022061 1.251199 0.6602459
vt 0.5834419 -0.8766204
vn -0.849298500000 0.461950300000 -0.255526800000
v 0.1022061 -0.01304865 0.6602459
vt 0.5834419 -0.8766285
vn -0.838329300000 -0.472356300000 -0.272182700000
v 7.643258E-09 0.1748578 -0.004236539
vt 0.9906998 -0.9988735
vn -0.955152400000 -0.296114700000 -0.000000000330
v 0.1022061 0.03372722 -0.004236533
vt 0.9906998 -0.8766285
vn -0.809920100000 -0.586540300000 -0.000000000051
v 0.1022061 -0.01304865 -0.668719
vt 0.5834331 -0.8766285
vn -0.838329400000 -0.472356300000 0.272182700000
v 7.643258E-09 0.1748578 -0.668719
vt 0.5834331 -0.9988735
vn -0.930513500000 -0.273790400000 0.243276600000
v 0.1296845 1.126852 -0.7561924
vt 0.5031708 -0.8766204
vn -0.624703200000 0.618338300000 0.476868500000
v 0.1022061 1.063293 -0.8920757
vt 0.5834408 -0.876631
vn -0.878546200000 0.257954600000 0.402015000000
v 4.647799E-08 1.063293 -0.668719
vt 0.5834331 -0.998703
vn -0.931054400000 0.270117000000 0.245305000000
v 0.1022061 0.6190754 -0.8355074
vt 0.9906931 -0.8766624
vn -0.862085700000 0.024912720000 0.506149800000
v 2.706063E-08 0.6190754 -0.668719
vt 0.9906672 -0.9989846
vn -0.964988400000 0.011714010000 0.262031100000
v 0.1022061 0.1748578 -0.8920755
vt 0.5834408 -0.8766392
vn -0.862446800000 -0.281450800000 0.420679200000
v 0.1296846 0.1112987 -0.7561924
vt 0.5031708 -0.8766285
vn -0.624703000000 -0.618338300000 0.476868700000
v 0.1022061 1.204424 -0.004236533
vt 0.9906998 -0.8766204
vn -0.824264300000 0.566205200000 0.000000000088
v 4.647799E-08 1.063293 -0.004236539
vt 0.9906998 -0.998703
vn -0.951293900000 0.308285400000 0.000000000000
v 0.1022061 1.251199 -0.668719
vt 0.5834331 -0.8766204
vn -0.849298500000 0.461950300000 0.255526800000
v 0.06282122 1.063293 -0.668719
vt 0.5823091 -0.9993262
vn 0.978912400000 -0.152917000000 -0.135450600000
v 0.1022061 1.063293 -0.8920757
vt 0.582624 -0.876902
vn 0.967304500000 -0.177519200000 -0.181132300000
v 0.1296845 1.126852 -0.7561924
vt 0.5060889 -0.8767497
vn 0.837510300000 -0.445382700000 -0.316560700000
v 0.06282122 0.6190754 -0.668719
vt 0.9912276 -0.9993505
vn 0.994246300000 -0.000000003818 -0.107118100000
v 0.06282122 0.1748578 -0.668719
vt 0.5823091 -0.999289
vn 0.978841400000 0.150551700000 -0.138577300000
v 0.1022061 -0.01304865 -0.668719
vt 0.5823091 -0.8767431
vn 0.963088600000 0.208482600000 -0.170280500000
v 0.1296846 0.1112987 -0.7561924
vt 0.5060889 -0.8767431
vn 0.837510500000 0.445382400000 -0.316560800000
v 0.1022061 0.1748578 -0.8920755
vt 0.582624 -0.8768954
vn 0.967304500000 0.177519300000 -0.181132200000
v 0.1022061 0.6190754 -0.8355074
vt 0.9911256 -0.8769109
vn 0.973234100000 -0.000000018006 -0.229816100000
v 0.06282122 0.1748578 -0.004236537
vt 0.99121 -0.9993279
vn 0.991142800000 0.132742300000 0.003919322000
v 0.1022061 0.03372722 -0.004236533
vt 0.9911833 -0.8767431
vn 0.964681700000 0.263290500000 0.008202269000
v 0.06282122 0.1748578 0.6602458
vt 0.5824056 -0.999289
vn 0.979073000000 0.148675600000 0.138966600000
v 0.1022061 -0.01304865 0.6602459
vt 0.5824056 -0.8767431
vn 0.965754500000 0.202420400000 0.162308900000
v 0.1296846 0.1112987 0.7477193
vt 0.5070671 -0.8767431
vn 0.837510500000 0.445382300000 0.316560800000
v 0.1022061 0.1748578 0.8836026
vt 0.5827205 -0.8768954
vn 0.971059800000 0.166504200000 0.171228500000
v 0.06282122 0.6190754 0.6602459
vt 0.9912303 -0.9993505
vn 0.993286000000 0.000000000000 0.115684700000
v 0.1022061 0.6190754 0.8270344
vt 0.9911361 -0.8769109
vn 0.976926000000 -0.000000004166 0.213578200000
v 0.06282122 1.063293 0.6602459
vt 0.5824056 -0.9993262
vn 0.978981200000 -0.146307900000 0.142090900000
v 0.1022061 1.063293 0.8836026
vt 0.5827205 -0.876902
vn 0.971059800000 -0.166504100000 0.171228600000
v 0.1296845 1.126852 0.7477193
vt 0.5070671 -0.8767497
vn 0.837510300000 -0.445382700000 0.316560700000
v 0.1022061 1.251199 0.6602459
vt 0.5824056 -0.8767497
vn 0.963088500000 -0.208482700000 0.170280500000
v 0.06282122 1.063293 -0.004236537
vt 0.99121 -0.9993376
vn 0.991142800000 -0.132742300000 -0.003919320000
v 0.1022061 1.204424 -0.004236533
vt 0.9911833 -0.8767497
vn 0.964681700000 -0.263290600000 -0.008202263000
v 0.1022061 1.251199 -0.668719
vt 0.5823091 -0.8767497
vn 0.965754500000 -0.202420400000 -0.162308900000
v 0.06282122 0.6190754 -0.668719
vt 0.9990793 -0.1856725
vn 0.994246300000 -0.000000003818 -0.107118100000
v 0.06282122 1.063293 -0.668719
vt 0.9990793 -0.002392292
vn 0.978912400000 -0.152917000000 -0.135450600000
v 0.06282122 0.1748578 -0.004236537
vt 0.7500311 -0.3689527
vn 0.991142800000 0.132742300000 0.003919322000
v 0.06282122 0.1748578 -0.668719
vt 0.9990793 -0.3689527
vn 0.978841400000 0.150551700000 -0.138577300000
v 0.06282122 0.1748578 0.6602458
vt 0.5009828 -0.3689527
vn 0.979073000000 0.148675600000 0.138966600000
g FK_PAINTING01
o FK_PAINTING010
usemtl tex_194842
s 1
f 1/1/1 2/2/2 3/3/3
f 4/4/4 5/5/5 6/6/6
f 7/7/7 5/5/5 4/4/4
f 4/4/4 8/8/8 7/7/7
f 4/4/4 9/9/9 8/8/8
f 4/4/4 10/10/10 9/9/9
f 11/11/11 10/10/10 4/4/4
f 4/4/4 12/12/12 11/11/11
f 12/12/12 4/4/4 6/6/6
f 13/13/13 14/14/14 15/15/15
f 15/15/15 14/14/14 16/16/16
f 16/16/16 17/17/17 15/15/15
f 17/17/17 16/16/16 18/18/18
f 18/18/18 19/19/19 17/17/17
f 20/20/20 19/19/19 18/18/18
f 19/19/19 20/20/20 21/21/21
f 15/15/15 22/22/22 13/13/13
f 23/23/23 24/24/24 22/22/22
f 22/22/22 15/15/15 23/23/23
f 25/25/25 24/24/24 23/23/23
f 23/23/23 26/26/26 25/25/25
f 27/27/27 28/28/28 29/29/29
f 29/29/29 28/28/28 30/30/30
f 30/30/30 31/31/31 29/29/29
f 31/31/31 30/30/30 32/32/32
f 32/32/32 26/26/26 31/31/31
f 33/33/33 26/26/26 32/32/32
f 26/26/26 33/33/33 25/25/25
f 19/19/19 21/21/21 34/34/34
f 34/34/34 35/35/35 19/19/19
f 29/29/29 35/35/35 34/34/34
f 34/34/34 36/36/36 29/29/29
f 29/29/29 36/36/36 27/27/27
f 37/37/37 38/38/38 39/39/39
f 38/38/38 37/37/37 40/40/40
f 41/41/41 42/42/42 43/43/43
f 43/43/43 44/44/44 41/41/41
f 40/40/40 41/41/41 44/44/44
f 44/44/44 45/45/45 40/40/40
f 40/40/40 45/45/45 38/38/38
f 42/42/42 41/41/41 46/46/46
f 46/46/46 47/47/47 42/42/42
f 47/47/47 46/46/46 48/48/48
f 48/48/48 49/49/49 47/47/47
f 50/50/50 49/49/49 48/48/48
f 48/48/48 51/51/51 50/50/50
f 48/48/48 52/52/52 53/53/53
f 53/53/53 51/51/51 48/48/48
f 54/54/54 55/55/55 53/53/53
f 53/53/53 52/52/52 54/54/54
f 56/56/56 55/55/55 54/54/54
f 54/54/54 57/57/57 56/56/56
f 57/57/57 54/54/54 58/58/58
f 58/58/58 59/59/59 57/57/57
f 59/59/59 58/58/58 37/37/37
f 37/37/37 60/60/60 59/59/59
f 39/39/39 60/60/60 37/37/37
f 61/61/61 62/62/62 1/1/1
f 63/63/63 61/61/61 1/1/1
f 63/63/63 64/64/64 61/61/61
f 3/3/3 65/65/65 63/63/63
f 1/1/1 3/3/3 63/63/63
