# Written by Marlamin's WoW Exporter. Original file: WORLD\GENERIC\HUMAN\PASSIVE DOODADS\CLOTHING\FOLDEDPANTSGREY.M2
mtllib FOLDEDPANTSGREY.mtl
v -0.2456291 -0.001152403 0.00069703
vt 0.7503819 -0.5009102
vn -0.777469500000 0.628920700000 -0.000158063800
v -0.248754 -0.001152383 0.2062991
vt 0.8726234 -0.501074
vn -0.648694200000 0.698536500000 -0.302063800000
v -0.2336392 0.01366952 0.00069703
vt 0.7503819 -0.507772
vn -0.624752700000 0.780822300000 -0.000709619400
v -0.2246786 0.03355988 0.1821372
vt 0.8596576 -0.5078322
vn -0.198158600000 0.924670300000 -0.325143000000
v 0.2409479 -0.00115239 0.2367063
vt 0.8736453 -0.6778546
vn 0.306035100000 0.672390300000 -0.673968600000
v 0.2229736 0.03355988 0.2105152
vt 0.8606461 -0.6597751
vn 0.491811000000 0.824605300000 -0.279549700000
v 0.2584327 -0.001152396 0.01281208
vt 0.767333 -0.6497092
vn 0.693135000000 0.653131700000 0.304930700000
v 0.2309304 0.03355988 0.03153682
vt 0.7677909 -0.6321508
vn 0.280890800000 0.859358100000 0.427321900000
v 0.08490513 -0.001152357 0.00069703
vt 0.7503821 -0.5767621
vn 0.304137200000 0.952626100000 0.002015964000
v 0.03141007 0.04974772 0.00069703
vt 0.7503821 -0.5618067
vn 0.038444220000 0.999260700000 0.000037249410
v 0.2312738 0.03355988 -0.0294342
vt 0.7671038 -0.6323701
vn 0.431046200000 0.833768300000 -0.345006600000
v -0.2246785 0.03355988 -0.1753852
vt 0.8595345 -0.5078322
vn -0.223880400000 0.954888500000 0.195104100000
v 0.2229736 0.03355988 -0.2085989
vt 0.8608092 -0.6597751
vn 0.234773400000 0.826111600000 0.512270600000
v -0.248754 -0.001152383 -0.1995472
vt 0.8724946 -0.501074
vn -0.518056500000 0.711870000000 0.474192600000
v 0.2409479 -0.00115239 -0.2347901
vt 0.8737359 -0.6778546
vn 0.647683100000 0.667579500000 0.367211400000
v 0.2588529 -0.001152396 -0.01007564
vt 0.7674491 -0.6499774
vn 0.528281600000 0.693175200000 -0.490333200000
g FOLDEDPANTSGREY
o FOLDEDPANTSGREY0
usemtl tex_198132
s 1
f 1/1/1 2/2/2 3/3/3
f 4/4/4 3/3/3 2/2/2
f 2/2/2 5/5/5 4/4/4
f 6/6/6 4/4/4 5/5/5
f 5/5/5 7/7/7 6/6/6
f 8/8/8 6/6/6 7/7/7
f 7/7/7 9/9/9 8/8/8
f 10/10/10 8/8/8 9/9/9
f 11/11/11 10/10/10 9/9/9
f 12/12/12 10/10/10 11/11/11
f 13/13/13 12/12/12 11/11/11
f 4/4/4 6/6/6 8/8/8
f 8/8/8 10/10/10 4/4/4
f 3/3/3 4/4/4 10/10/10
f 10/10/10 12/12/12 3/3/3
f 3/3/3 12/12/12 14/14/14
f 12/12/12 13/13/13 14/14/14
f 15/15/15 14/14/14 13/13/13
f 13/13/13 11/11/11 15/15/15
f 16/16/16 15/15/15 11/11/11
f 9/9/9 16/16/16 11/11/11
f 14/14/14 1/1/1 3/3/3
