# Written by Marlamin's WoW Exporter. Original file: WORLD\GENERIC\HUMAN\PASSIVE DOODADS\CLOTHING\FOLDEDPANTSBROWN.M2
mtllib FOLDEDPANTSBROWN.mtl
v -0.2456291 0.0006760031 -0.00035882
vt 0.5013038 -0.5009102
vn -0.777469400000 0.628920700000 -0.000158063800
v -0.248754 0.0006760231 0.2052433
vt 0.6235453 -0.501074
vn -0.648694200000 0.698536600000 -0.302063800000
v -0.2336392 0.01549792 -0.00035882
vt 0.5013038 -0.507772
vn -0.624752600000 0.780822400000 -0.000709619400
v -0.2246786 0.03538828 0.1810814
vt 0.6105794 -0.5078322
vn -0.198158500000 0.924670300000 -0.325143000000
v 0.2409479 0.0006759895 0.2356505
vt 0.6245671 -0.6778546
vn 0.306035200000 0.672390300000 -0.673968600000
v 0.2229735 0.03538826 0.2094593
vt 0.6115679 -0.6597751
vn 0.491811000000 0.824605300000 -0.279549700000
v 0.2584327 0.000675982 0.01175623
vt 0.5182548 -0.6497092
vn 0.693135100000 0.653131700000 0.304930700000
v 0.2309303 0.03538826 0.03048097
vt 0.5187127 -0.6321508
vn 0.280890800000 0.859358100000 0.427321900000
v 0.0849051 0.0006760312 -0.00035882
vt 0.5013039 -0.5767621
vn 0.304137300000 0.952626100000 0.002015964000
v 0.03141005 0.05157611 -0.00035882
vt 0.5013039 -0.5618067
vn 0.038444270000 0.999260700000 0.000037249410
v 0.2312738 0.03538826 -0.03049005
vt 0.5180256 -0.6323701
vn 0.431046300000 0.833768300000 -0.345006600000
v -0.2246786 0.03538828 -0.1764411
vt 0.6104563 -0.5078322
vn -0.223880400000 0.954888500000 0.195104100000
v 0.2229735 0.03538826 -0.2096548
vt 0.6117311 -0.6597751
vn 0.234773400000 0.826111600000 0.512270600000
v -0.248754 0.0006760231 -0.200603
vt 0.6234164 -0.501074
vn -0.518056500000 0.711870000000 0.474192600000
v 0.2409479 0.0006759895 -0.2358459
vt 0.6246578 -0.6778546
vn 0.647683100000 0.667579400000 0.367211400000
v 0.2588529 0.0006759819 -0.01113148
vt 0.518371 -0.6499774
vn 0.528281700000 0.693175200000 -0.490333200000
g FOLDEDPANTSBROWN
o FOLDEDPANTSBROWN0
usemtl tex_198132
s 1
f 1/1/1 2/2/2 3/3/3
f 4/4/4 3/3/3 2/2/2
f 2/2/2 5/5/5 4/4/4
f 6/6/6 4/4/4 5/5/5
f 5/5/5 7/7/7 6/6/6
f 8/8/8 6/6/6 7/7/7
f 7/7/7 9/9/9 8/8/8
f 10/10/10 8/8/8 9/9/9
f 11/11/11 10/10/10 9/9/9
f 12/12/12 10/10/10 11/11/11
f 13/13/13 12/12/12 11/11/11
f 4/4/4 6/6/6 8/8/8
f 8/8/8 10/10/10 4/4/4
f 3/3/3 4/4/4 10/10/10
f 10/10/10 12/12/12 3/3/3
f 3/3/3 12/12/12 14/14/14
f 12/12/12 13/13/13 14/14/14
f 15/15/15 14/14/14 13/13/13
f 13/13/13 11/11/11 15/15/15
f 16/16/16 15/15/15 11/11/11
f 9/9/9 16/16/16 11/11/11
f 14/14/14 1/1/1 3/3/3
