# Written by Marlamin's WoW Exporter. Original file: WORLD\GENERIC\HUMAN\PASSIVE DOODADS\CLOTHING\FOLDERSHIRTGREEN.M2
mtllib FOLDERSHIRTGREEN.mtl
v -0.05993139 0.0437293 -0.1492912
vt 0.6028469 -0.3617482
vn 0.168920100000 0.949637100000 0.263923200000
v -0.03569109 0.007844718 -0.1754823
vt 0.620506 -0.362271
vn 0.353630000000 0.695444600000 0.625541800000
v -0.02968437 0.00789971 -0.2364227
vt 0.6200071 -0.3813058
vn 0.333257300000 0.907047500000 0.257302000000
v -0.2433697 0.009657114 -0.1754823
vt 0.6088033 -0.2627713
vn -0.811433300000 0.549865000000 0.198051800000
v -0.2250848 0.04517058 -0.1492912
vt 0.6030429 -0.2885199
vn -0.333607300000 0.893043500000 0.301959300000
v -0.2071875 0.009448753 -0.2364227
vt 0.6208963 -0.2893075
vn -0.352422000000 0.838268000000 0.416059300000
v -0.02968437 0.00789971 -0.2364227
vt 0.6208963 -0.3616694
vn 0.333257300000 0.907047500000 0.257302000000
v -0.05993139 0.0437293 -0.1492912
vt 0.6033843 -0.3620106
vn 0.168920100000 0.949637100000 0.263923200000
v -0.2250848 0.04517058 0.1588398
vt 0.6023096 -0.2823706
vn -0.422083000000 0.864079400000 -0.274249600000
v -0.2433697 0.009657114 0.1850309
vt 0.6196401 -0.2824523
vn -0.811158100000 0.550090400000 -0.198552500000
v -0.2069966 0.009447101 0.2459712
vt 0.6196401 -0.2666341
vn -0.229599700000 0.882880400000 -0.409641400000
v -0.03168527 0.007809759 0.1850309
vt 0.620092 -0.3680116
vn 0.524362500000 0.718070300000 -0.457623200000
v -0.05799329 0.04371238 0.1588398
vt 0.6023096 -0.3528181
vn 0.124012200000 0.923382500000 -0.363298400000
v -0.02606975 0.007868165 0.2459712
vt 0.6199356 -0.3528181
vn 0.485795800000 0.856504700000 -0.174362200000
v -0.2069966 0.009447101 0.2459712
vt 0.6199356 -0.2823706
vn -0.229599700000 0.882880400000 -0.409641400000
v -0.2339121 0.06047662 0.004774306
vt 0.5003144 -0.2868602
vn -0.498311300000 0.866998200000 -0.000000001085
v -0.2250848 0.04517058 -0.1492912
vt 0.6057354 -0.2828225
vn -0.333607300000 0.893043500000 0.301959300000
v -0.2433697 0.009657114 -0.1754823
vt 0.623657 -0.24946
vn -0.811433300000 0.549865000000 0.198051800000
v -0.05993139 0.0437293 -0.1492912
vt 0.6057354 -0.3575736
vn 0.168920100000 0.949637100000 0.263923200000
v 0.2346987 0.05638709 0.004774306
vt 0.5003144 -0.46036
vn 0.433508400000 0.900985700000 0.017182670000
v 0.2242554 0.04124923 -0.1492912
vt 0.6057353 -0.486201
vn 0.261462100000 0.798817100000 0.541783000000
v -0.2613583 0.009814104 0.004774306
vt 0.5003144 -0.2777237
vn -0.879263200000 0.476336200000 0.000000000000
v -0.2433697 0.009657114 0.1850309
vt 0.6233352 -0.24946
vn -0.811158100000 0.550090400000 -0.198552500000
v -0.05799329 0.04371238 0.1588398
vt 0.6054136 -0.3532701
vn 0.124012200000 0.923382500000 -0.363298400000
v 0.2242554 0.04124923 0.1588398
vt 0.6054136 -0.4603599
vn 0.527353600000 0.779791700000 -0.337376900000
v -0.2250848 0.04517058 0.1588398
vt 0.6054136 -0.2828225
vn -0.422083000000 0.864079400000 -0.274249600000
v -0.03168527 0.007809759 0.1850309
vt 0.6233352 -0.3567128
vn 0.524362500000 0.718070300000 -0.457623200000
v 0.2419178 0.005422047 0.1850309
vt 0.6233352 -0.4953374
vn 0.340762400000 0.658517500000 -0.670996000000
v 0.2635031 0.005233673 0.004774306
vt 0.5003144 -0.4953375
vn 0.868702900000 0.494061700000 -0.035472210000
v 0.2419178 0.005422047 -0.1754823
vt 0.6236569 -0.4953375
vn 0.677136800000 0.618970000000 0.397947000000
v -0.03569109 0.007844718 -0.1754823
vt 0.6236569 -0.3546833
vn 0.353630000000 0.695444600000 0.625541800000
g FOLDERSHIRTGREEN
o FOLDERSHIRTGREEN0
usemtl tex_198132
s 1
f 1/1/1 2/2/2 3/3/3
f 4/4/4 5/5/5 6/6/6
f 7/7/7 6/6/6 5/5/5
f 5/5/5 8/8/8 7/7/7
f 9/9/9 10/10/10 11/11/11
f 12/12/12 13/13/13 14/14/14
f 15/15/15 14/14/14 13/13/13
f 13/13/13 9/9/9 15/15/15
f 16/16/16 17/17/17 18/18/18
f 19/19/19 17/17/17 16/16/16
f 16/16/16 20/20/20 19/19/19
f 21/21/21 19/19/19 20/20/20
f 22/22/22 23/23/23 16/16/16
f 18/18/18 22/22/22 16/16/16
f 24/24/24 25/25/25 20/20/20
f 20/20/20 16/16/16 24/24/24
f 26/26/26 24/24/24 16/16/16
f 26/26/26 16/16/16 23/23/23
f 27/27/27 28/28/28 24/24/24
f 25/25/25 24/24/24 28/28/28
f 28/28/28 29/29/29 25/25/25
f 20/20/20 25/25/25 29/29/29
f 29/29/29 30/30/30 20/20/20
f 21/21/21 20/20/20 30/30/30
f 30/30/30 31/31/31 21/21/21
f 19/19/19 21/21/21 31/31/31
