# Written by Marlamin's WoW Exporter. Original file: WORLD\GENERIC\HUMAN\PASSIVE DOODADS\PLATES\GENERALDIRTYPLATE01.M2
mtllib GENERALDIRTYPLATE01.mtl
v -0.000797222 0.00663417 0.00356944
vt 0.5 -0.5
vn -0.000000094202 -1.000000000000 -0.000000000977
v -0.198662 0.0825425 0.346272
vt 0.984952 -0.742476
vn -0.094193900000 -0.982095000000 -0.163149000000
v -0.396522 0.0825425 0.00356944
vt 0.5 -0.984952
vn -0.188388000000 -0.982095000000 -0.000000005600
v 0.197059 0.0825425 -0.339133
vt 0.0150481 -0.257524
vn 0.094193700000 -0.982095000000 0.163149000000
v 0.394919 0.0825425 0.00356944
vt 0.5 -0.0150481
vn 0.188388000000 -0.982095000000 0.000000017506
v 0.197059 0.0825425 0.346272
vt 0.984952 -0.257524
vn 0.094193800000 -0.982095000000 -0.163149000000
v -0.198662 0.0825425 -0.339133
vt 0.0150481 -0.742476
vn -0.094193900000 -0.982095000000 0.163149000000
g GENERALDIRTYPLATE01
o GENERALDIRTYPLATE010
usemtl tex_198406
s 1
f 1/1/1 2/2/2 3/3/3
f 1/1/1 4/4/4 5/5/5
f 1/1/1 5/5/5 6/6/6
f 1/1/1 6/6/6 2/2/2
f 1/1/1 7/7/7 4/4/4
f 1/1/1 3/3/3 7/7/7
