# Written by Marlamin's WoW Exporter. Original file: WORLD\AZEROTH\ELWYNN\BUILDINGS\GOLDMINE\GOLDMINETRACKS.M2
mtllib GOLDMINETRACKS.mtl
v -5.357748 0.1479394 -0.289007
vt 1.527823 6.394162
vn -1.000000000000 0.000000000000 0.000000000000
v -5.357748 0.01293655 -0.4240099
vt 1.858743 6.394162
vn -1.000000000000 0.000000000000 0.000000000000
v -5.357748 0.01293654 -0.1540042
vt 1.196904 6.394162
vn -1.000000000000 0.000000000000 0.000000000000
v 5.888916 0.01293581 -0.7037462
vt -0.008944783 0
vn 1.000000000000 -0.000000119209 0.000000000000
v 5.888916 0.1479387 -0.5687435
vt 0.9910552 -5.960464E-08
vn 1.000000000000 -0.000000119209 0.000000000000
v 5.888916 0.0129358 -0.4337406
vt 0.9910552 -1
vn 1.000000000000 -0.000000119209 0.000000000000
v 5.888916 0.0129361 0.4365351
vt -0.008944783 0
vn 1.000000000000 -0.000000119209 0.000000000000
v 5.888916 0.1479389 0.571538
vt 0.9910552 -5.960464E-08
vn 1.000000000000 -0.000000119209 0.000000000000
v 5.888916 0.01293609 0.7065408
vt 0.9910552 -1
vn 1.000000000000 -0.000000119209 0.000000000000
v 4.013876 0.01293677 0.7065408
vt 0.9910552 -1
vn -0.003687514000 0.707102100000 -0.707101900000
v 5.888916 0.01293609 0.7065408
vt 0.0009229463 -1
vn 0.000000059605 0.707106800000 -0.707106700000
v 5.888916 0.1479389 0.571538
vt 0.0009229891 -0.002415478
vn 0.000000084294 1.000000000000 -0.000000114419
v 4.013876 0.1479396 0.5715379
vt 0.9910552 -0.002415538
vn -0.003488586000 0.999993600000 -0.000769221400
v 4.013876 0.1479396 0.5715379
vt 0.9910552 -0.004130423
vn -0.003488586000 0.999993600000 -0.000769221400
v 5.888916 0.1479389 0.571538
vt -0.008944826 -0.004130423
vn 0.000000084294 1.000000000000 -0.000000114419
v 5.888916 0.0129361 0.4365351
vt -0.008944783 -0.9834782
vn 0.000000059605 0.707106900000 0.707106600000
v 4.013876 0.01293678 0.4365351
vt 0.9910552 -0.9834782
vn -0.001255982000 0.707106400000 0.707106100000
v -5.357748 0.01293655 0.718896
vt -0.8979104 6.394163
vn -1.000000000000 0.000000000000 0.000000000000
v -5.357748 0.01293654 0.9889017
vt -1.55975 6.394163
vn -1.000000000000 0.000000000000 0.000000000000
v -5.357748 0.1479394 0.8538988
vt -1.22883 6.394163
vn -1.000000000000 0.000000000000 0.000000000000
v 0.2637986 -0.000155792 -0.4401885
vt 0.9910552 -1
vn 0.000000063389 0.707106900000 -0.707106600000
v 2.138838 -0.0001564749 -0.4401885
vt 0.0009229463 -1
vn -0.003681652000 0.707102100000 -0.707101800000
v 2.138837 0.1348463 -0.5751913
vt 0.0009229891 -0.002415478
vn -0.003494226000 0.999993600000 0.000778585500
v 0.2637985 0.134847 -0.5751913
vt 0.9910552 -0.002415538
vn 0.000000087339 1.000000000000 -0.000000035206
v 0.2637985 0.134847 -0.5751913
vt 0.9910552 -0.004130423
vn 0.000000087339 1.000000000000 -0.000000035206
v 2.138837 0.1348463 -0.5751913
vt -0.008944826 -0.004130423
vn -0.003494226000 0.999993600000 0.000778585500
v 2.138838 -0.000156483 -0.7101942
vt -0.008944783 -0.9834782
vn -0.001250092000 0.707106500000 0.707106000000
v 0.2637986 -0.0001558027 -0.7101942
vt 0.9910552 -0.9834782
vn 0.000000059605 0.707107100000 0.707106500000
v 2.138838 -0.0001564749 -0.4401885
vt 0.9910552 -1
vn -0.007369179000 0.707087800000 -0.707087500000
v 4.013876 0.01293648 -0.4337406
vt 0.0009229463 -1
vn -0.007369166000 0.707087600000 -0.707087500000
v 4.013876 0.1479394 -0.5687435
vt 0.0009229891 -0.002415478
vn -0.007369167000 0.707087600000 -0.707087500000
v 2.138837 0.1348463 -0.5751913
vt 0.9910552 -0.002415538
vn -0.007369180000 0.707087800000 -0.707087500000
v 4.013876 0.01293648 -0.4337406
vt -0.008944826 -1
vn -0.003687514000 0.707102100000 -0.707101900000
v 4.013876 0.1479394 -0.5687435
vt -0.008944783 0
vn -0.003488586000 0.999993600000 -0.000769221400
v 2.138837 0.1348463 -0.5751913
vt 0.9910552 -5.960464E-08
vn -0.003494226000 0.999993600000 0.000778585500
v 2.138837 0.1348463 -0.5751913
vt 0.9910552 -0.004130423
vn -0.003494226000 0.999993600000 0.000778585500
v 4.013876 0.1479394 -0.5687435
vt -0.008944826 -0.004130423
vn -0.003488586000 0.999993600000 -0.000769221400
v 4.013876 0.01293649 -0.7037462
vt -0.008944783 -0.9834782
vn -0.001255982000 0.707106400000 0.707106100000
v 2.138838 -0.000156483 -0.7101942
vt 0.9910552 -0.9834782
vn -0.001250092000 0.707106500000 0.707106000000
v 4.013876 0.01293648 -0.4337406
vt 0.9910552 -1
vn -0.003687514000 0.707102100000 -0.707101900000
v 5.888916 0.0129358 -0.4337406
vt 0.0009229463 -1
vn 0.000000059605 0.707106800000 -0.707106700000
v 5.888916 0.1479387 -0.5687435
vt 0.0009229891 -0.002415478
vn 0.000000084294 1.000000000000 -0.000000114419
v 4.013876 0.1479394 -0.5687435
vt 0.9910552 -0.002415538
vn -0.003488586000 0.999993600000 -0.000769221400
v 4.013876 0.1479394 -0.5687435
vt 0.9910552 -0.004130423
vn -0.003488586000 0.999993600000 -0.000769221400
v 5.888916 0.1479387 -0.5687435
vt -0.008944826 -0.004130423
vn 0.000000084294 1.000000000000 -0.000000114419
v 5.888916 0.01293581 -0.7037462
vt -0.008944783 -0.9834782
vn 0.000000059605 0.707106900000 0.707106600000
v 4.013876 0.01293649 -0.7037462
vt 0.9910552 -0.9834782
vn -0.001255982000 0.707106400000 0.707106100000
v 0.2637986 -0.0001554997 0.7000929
vt 0.9910552 -1
vn 0.000000063389 0.707106900000 -0.707106600000
v 2.138838 -0.0001561827 0.7000929
vt 0.0009229463 -1
vn -0.003681652000 0.707102100000 -0.707101800000
v 2.138837 0.1348466 0.5650901
vt 0.0009229891 -0.002415478
vn -0.003494226000 0.999993600000 0.000778585500
v 0.2637985 0.1348473 0.5650901
vt 0.9910552 -0.002415538
vn 0.000000087339 1.000000000000 -0.000000035206
v 0.2637985 0.1348473 0.5650901
vt 0.9910552 -0.004130423
vn 0.000000087339 1.000000000000 -0.000000035206
v 2.138837 0.1348466 0.5650901
vt -0.008944826 -0.004130423
vn -0.003494226000 0.999993600000 0.000778585500
v 2.138838 -0.0001561907 0.4300872
vt -0.008944783 -0.9834782
vn -0.001250092000 0.707106500000 0.707106000000
v 0.2637986 -0.0001555105 0.4300872
vt 0.9910552 -0.9834782
vn 0.000000059605 0.707107100000 0.707106500000
v 2.138838 -0.0001561827 0.7000929
vt 0.9910552 -1
vn -0.007369179000 0.707087800000 -0.707087500000
v 4.013876 0.01293677 0.7065408
vt 0.0009229463 -1
vn -0.007369166000 0.707087600000 -0.707087500000
v 4.013876 0.1479396 0.5715379
vt 0.0009229891 -0.002415478
vn -0.007369167000 0.707087600000 -0.707087500000
v 2.138837 0.1348466 0.5650901
vt 0.9910552 -0.002415538
vn -0.007369180000 0.707087800000 -0.707087500000
v 4.013876 0.01293677 0.7065408
vt -0.008944826 -1
vn -0.003687514000 0.707102100000 -0.707101900000
v 4.013876 0.1479396 0.5715379
vt -0.008944783 0
vn -0.003488586000 0.999993600000 -0.000769221400
v 2.138837 0.1348466 0.5650901
vt 0.9910552 -5.960464E-08
vn -0.003494226000 0.999993600000 0.000778585500
v 2.138837 0.1348466 0.5650901
vt 0.9910552 -0.004130423
vn -0.003494226000 0.999993600000 0.000778585500
v 4.013876 0.1479396 0.5715379
vt -0.008944826 -0.004130423
vn -0.003488586000 0.999993600000 -0.000769221400
v 4.013876 0.01293678 0.4365351
vt -0.008944783 -0.9834782
vn -0.001255982000 0.707106400000 0.707106100000
v 2.138838 -0.0001561907 0.4300872
vt 0.9910552 -0.9834782
vn -0.001250092000 0.707106500000 0.707106000000
v -1.607669 0.1348457 -0.5749928
vt 2.980232E-08 -0.007077277
vn -0.001714942000 0.999417200000 0.034092370000
v 0.26737 -0.0001571055 -0.4399899
vt 1 -0.9716909
vn -0.000000007569 0.707106800000 -0.707106800000
v 0.26737 0.1348457 -0.5749928
vt 1 -0.007077336
vn -0.000000006092 1.000000000000 0.000000073408
v -1.607669 -0.0001571055 -0.4399899
vt -1.390907E-08 -0.9716908
vn 0.057890390000 0.705920900000 -0.705920900000
v -3.482708 0.1479394 -0.289007
vt 2.980232E-08 -0.007077277
vn 0.008609874000 0.999395800000 -0.033673980000
v -1.607669 -0.0001571055 -0.4399899
vt 1 -0.9716909
vn 0.057890390000 0.705920900000 -0.705920900000
v -1.607669 0.1348457 -0.5749928
vt 1 -0.007077336
vn -0.001714942000 0.999417200000 0.034092370000
v -3.482708 0.01293654 -0.1540042
vt -1.390907E-08 -0.9716908
vn 0.054245120000 0.706065700000 -0.706065700000
v -5.357748 0.1479394 -0.289007
vt 2.980232E-08 -0.007077277
vn 0.000000000000 1.000000000000 -0.000000114419
v -3.482708 0.01293654 -0.1540042
vt 1 -0.9716909
vn 0.054245120000 0.706065700000 -0.706065700000
v -3.482708 0.1479394 -0.289007
vt 1 -0.007077336
vn 0.008609874000 0.999395800000 -0.033673980000
v -5.357748 0.01293654 -0.1540042
vt -1.390907E-08 -0.9716908
vn 0.000000000000 0.707106800000 -0.707106800000
v -5.357748 0.1479394 0.8538988
vt 0.2418837 -0.0004994869
vn 0.000000000000 1.000000000000 -0.000000114419
v -5.357748 0.01293654 0.9889017
vt 0.0004995763 -0.911175
vn 0.000000000000 0.707106700000 -0.707106800000
v -3.482708 0.01293654 0.9889017
vt 0.0004995763 -0.911175
vn 0.054717340000 0.706047400000 -0.706047500000
v -3.482708 0.1479394 0.8538988
vt 0.2418837 -0.0004994869
vn 0.008707112000 0.999384300000 -0.033987790000
v -1.607669 -0.0001571045 0.7001797
vt 0.5167323 -0.9994999
vn 0.058431990000 0.705898500000 -0.705898700000
v -1.607669 0.1348457 0.5651768
vt 0.7581164 -0.08882475
vn -0.001813868000 0.999406200000 0.034409880000
v 0.26737 -0.0001571045 0.7001797
vt 0.5167323 -0.9994999
vn -0.000000007569 0.707106800000 -0.707106800000
v 0.26737 0.1348457 0.5651768
vt 0.7581164 -0.08882463
vn -0.000000006092 1.000000000000 0.000000019745
v -1.607669 -0.0001571139 0.430174
vt 0.9995005 -0.9995004
vn -0.049836210000 0.706228300000 0.706228000000
v 0.26737 -0.0001571139 0.430174
vt 0.9995005 -0.9995004
vn 0.000000000000 0.707106800000 0.707106700000
v -3.482708 0.01293655 0.718896
vt 0.4832677 -0.9111753
vn -0.053555740000 0.706092000000 0.706092000000
v -5.357748 0.01293655 0.718896
vt 0.4832677 -0.9111753
vn 0.000000000000 0.707106800000 0.707106800000
v -1.607669 -0.0001571149 -0.7099956
vt 0.9995004 -0.9995004
vn -0.049362960000 0.706244900000 0.706244600000
v 0.26737 0.1348457 -0.5749928
vt 0.6791403 -0.08882463
vn -0.000000006092 1.000000000000 0.000000073408
v 0.26737 -0.0001571149 -0.7099956
vt 0.9995004 -0.9995004
vn 0.000000000000 0.707106800000 0.707106800000
v -1.607669 0.1348457 -0.5749928
vt 0.6791403 -0.08882475
vn -0.001714942000 0.999417200000 0.034092370000
v -3.482708 0.01293655 -0.4240099
vt 0.3208597 -0.9111753
vn -0.053013050000 0.706112400000 0.706112400000
v -3.482708 0.1479394 -0.289007
vt 0.0004995763 -0.0004994869
vn 0.008609874000 0.999395800000 -0.033673980000
v -5.357748 0.01293655 -0.4240099
vt 0.3208597 -0.9111753
vn 0.000000000000 0.707106800000 0.707106800000
v -5.357748 0.1479394 -0.289007
vt 0.0004995763 -0.0004994869
vn 0.000000000000 1.000000000000 -0.000000114419
v -0.3125381 -2.242838E-05 -0.5749928
vt 0 -1
vn 0.447213600000 0.894427200000 0.000000002847
v -0.5825437 0.1349804 -0.5749928
vt 1 -1
vn 0.000000069727 1.000000000000 -0.000000007945
v -0.5825437 0.1349804 0.550031
vt 1 0
vn 0.000000041788 1.000000000000 0.000000007945
v 1.658575 0.1349816 -0.5683911
vt 0 -1
vn 0.000000010122 1.000000000000 -0.000000007945
v 1.38857 -2.11858E-05 0.5566326
vt 1 0
vn -0.447213600000 0.894427200000 -0.000000002847
v 1.658575 0.1349816 0.5566326
vt 0 0
vn -0.000000017817 1.000000000000 0.000000007945
v 1.388569 -2.119776E-05 -0.5683911
vt 1 -1
vn -0.447213500000 0.894427200000 -0.000000017060
v 1.928581 -2.131048E-05 -0.5683911
vt 0 -1
vn 0.447213500000 0.894427200000 0.000000002847
v 1.658575 0.1349816 0.5566326
vt 1 0
vn -0.000000017817 1.000000000000 0.000000007945
v 1.928581 -2.129851E-05 0.5566326
vt 0 0
vn 0.447213500000 0.894427200000 0.000000017060
v 1.658575 0.1349816 -0.5683911
vt 1 -1
vn 0.000000010122 1.000000000000 -0.000000007945
v 2.780042 0.1349812 -0.5683911
vt 0 -1
vn 0.000000010122 1.000000000000 -0.000000007945
v 2.510036 -2.153591E-05 0.5566326
vt 1 0
vn -0.447213600000 0.894427200000 -0.000000002847
v 2.780042 0.1349813 0.5566326
vt 0 0
vn -0.000000017817 1.000000000000 0.000000007945
v 2.510036 -2.154788E-05 -0.5683911
vt 1 -1
vn -0.447213500000 0.894427200000 -0.000000017060
v 3.050047 -2.166059E-05 -0.5683911
vt 0 -1
vn 0.447213500000 0.894427200000 0.000000002847
v 2.780042 0.1349813 0.5566326
vt 1 0
vn -0.000000017817 1.000000000000 0.000000007945
v 3.050047 -2.164863E-05 0.5566326
vt 0 0
vn 0.447213500000 0.894427200000 0.000000017060
v 2.780042 0.1349812 -0.5683911
vt 1 -1
vn 0.000000010122 1.000000000000 -0.000000007945
v 3.897586 0.1349809 -0.5683911
vt 0 -1
vn 0.000000010122 1.000000000000 -0.000000007945
v 3.62758 -2.18848E-05 0.5566326
vt 1 0
vn -0.447213600000 0.894427200000 -0.000000002847
v 3.897586 0.1349809 0.5566326
vt 0 0
vn -0.000000017817 1.000000000000 0.000000007945
v 3.62758 -2.189677E-05 -0.5683911
vt 1 -1
vn -0.447213500000 0.894427200000 -0.000000017060
v 4.167592 -2.200948E-05 -0.5683911
vt 0 -1
vn 0.447213500000 0.894427200000 0.000000002847
v 3.897586 0.1349809 0.5566326
vt 1 0
vn -0.000000017817 1.000000000000 0.000000007945
v 4.167592 -2.199752E-05 0.5566326
vt 0 0
vn 0.447213500000 0.894427200000 0.000000017060
v 3.897586 0.1349809 -0.5683911
vt 1 -1
vn 0.000000010122 1.000000000000 -0.000000007945
v 5.058224 0.1349805 -0.5683911
vt 0 -1
vn 0.000000010122 1.000000000000 -0.000000007945
v 4.788218 -2.224714E-05 0.5566326
vt 1 0
vn -0.447213600000 0.894427200000 -0.000000002847
v 5.058224 0.1349805 0.5566326
vt 0 0
vn -0.000000017817 1.000000000000 0.000000007945
v 4.788218 -2.225911E-05 -0.5683911
vt 1 -1
vn -0.447213500000 0.894427200000 -0.000000017060
v 5.328229 -2.237182E-05 -0.5683911
vt 0 -1
vn 0.447213500000 0.894427200000 0.000000002847
v 5.058224 0.1349805 0.5566326
vt 1 0
vn -0.000000017817 1.000000000000 0.000000007945
v 5.32823 -2.235986E-05 0.5566326
vt 0 0
vn 0.447213500000 0.894427200000 0.000000017060
v 5.058224 0.1349805 -0.5683911
vt 1 -1
vn 0.000000010122 1.000000000000 -0.000000007945
v 0.5331739 0.1349819 -0.5683911
vt 0 -1
vn 0.000000010122 1.000000000000 -0.000000007945
v 0.2631682 -2.083446E-05 0.5566326
vt 1 0
vn -0.447213600000 0.894427200000 -0.000000002847
v 0.5331739 0.1349819 0.5566326
vt 0 0
vn -0.000000017817 1.000000000000 0.000000007945
v 0.2631682 -2.084642E-05 -0.5683911
vt 1 -1
vn -0.447213500000 0.894427200000 -0.000000017060
v 0.8031796 -2.095914E-05 -0.5683911
vt 0 -1
vn 0.447213500000 0.894427200000 0.000000002847
v 0.5331739 0.1349819 0.5566326
vt 1 0
vn -0.000000017817 1.000000000000 0.000000007945
v 0.8031796 -2.094717E-05 0.5566326
vt 0 0
vn 0.447213500000 0.894427200000 0.000000017060
v 0.5331739 0.1349819 -0.5683911
vt 1 -1
vn 0.000000010122 1.000000000000 -0.000000007945
v -5.085879 0.1479394 -0.289007
vt 2.980232E-08 0
vn 0.000000069727 1.000000000000 -0.000000007945
v -5.355885 0.01293654 0.8360168
vt 1 -1
vn -0.447213600000 0.894427200000 -0.000000002847
v -5.085879 0.1479394 0.8360168
vt 1 -5.960464E-08
vn 0.000000041788 1.000000000000 0.000000007945
v -5.355885 0.01293654 -0.289007
vt -1.390907E-08 -1
vn -0.447213600000 0.894427200000 -0.000000017060
v -4.815874 0.01293651 -0.289007
vt 2.980232E-08 0
vn 0.447213600000 0.894427200000 0.000000002847
v -5.085879 0.1479394 0.8360168
vt 1 -1
vn 0.000000041788 1.000000000000 0.000000007945
v -4.815874 0.01293651 0.8360168
vt 1 -5.960464E-08
vn 0.447213600000 0.894427200000 0.000000017060
v -5.085879 0.1479394 -0.289007
vt -1.390907E-08 -1
vn 0.000000069727 1.000000000000 -0.000000007945
v -3.978097 0.1479393 -0.289007
vt 2.980232E-08 0
vn 0.000000069727 1.000000000000 -0.000000007945
v -4.248103 0.01293648 0.8360168
vt 1 -1
vn -0.447213600000 0.894427200000 -0.000000002847
v -3.978097 0.1479393 0.8360168
vt 1 -5.960464E-08
vn 0.000000041788 1.000000000000 0.000000007945
v -4.248103 0.01293648 -0.289007
vt -1.390907E-08 -1
vn -0.447213600000 0.894427200000 -0.000000017060
v -3.708091 0.01293644 -0.289007
vt 2.980232E-08 0
vn 0.447213600000 0.894427200000 0.000000002847
v -3.978097 0.1479393 0.8360168
vt 1 -1
vn 0.000000041788 1.000000000000 0.000000007945
v -3.708091 0.01293644 0.8360168
vt 1 -5.960464E-08
vn 0.447213600000 0.894427200000 0.000000017060
v -3.978097 0.1479393 -0.289007
vt -1.390907E-08 -1
vn 0.000000069727 1.000000000000 -0.000000007945
v -2.949871 0.1349807 -0.3750983
vt 0 -1
vn 0.000000103012 1.000000000000 -0.000000040509
v -3.020416 -2.217032E-05 0.7797199
vt 1 0
vn -0.440419400000 0.894427200000 -0.077657890000
v -2.754512 0.1349807 0.7328339
vt 0 0
vn 0.000000072738 1.000000000000 -0.000000029711
v -3.215774 -2.215763E-05 -0.3282123
vt 1 -1
vn -0.440419300000 0.894427200000 -0.077657900000
v -2.683967 -2.219219E-05 -0.4219843
vt 0 -1
vn 0.440419500000 0.894427100000 0.077657830000
v -2.754512 0.1349807 0.7328339
vt 1 0
vn 0.000000072738 1.000000000000 -0.000000029711
v -2.488609 -2.220488E-05 0.6859478
vt 0 0
vn 0.440419500000 0.894427200000 0.077657840000
v -2.949871 0.1349807 -0.3750983
vt 1 -1
vn 0.000000103012 1.000000000000 -0.000000040509
v -0.5825437 0.1349804 -0.5749928
vt 0 -1
vn 0.000000069727 1.000000000000 -0.000000007945
v -0.8525494 -2.239619E-05 0.550031
vt 1 0
vn -0.447213600000 0.894427200000 -0.000000002847
v -0.5825437 0.1349804 0.550031
vt 0 0
vn 0.000000041788 1.000000000000 0.000000007945
v -0.8525494 -2.239619E-05 -0.5749928
vt 1 -1
vn -0.447213600000 0.894427200000 -0.000000017060
v -1.456395 -2.229629E-05 -0.5885357
vt 0.0004996061 -0.9995005
vn 0.387752500000 0.921600700000 0.017322980000
v -1.7264 0.1349806 0.550031
vt 0.4999999 -0.0004995465
vn -0.006279137000 0.999893500000 0.013173860000
v -1.456395 -2.229561E-05 0.550031
vt 0.0004995465 -0.0004995465
vn 0.447213600000 0.894427200000 0.000000016857
v -1.7264 0.1098281 -0.5592649
vt 0.4999999 -0.9995005
vn -0.007231728000 0.999887900000 0.013107070000
v -1.996406 -2.226342E-05 0.550031
vt 0.9995004 -0.0004995465
vn -0.435821600000 0.899873100000 0.016968360000
v -1.996406 -2.22641E-05 -0.5885357
vt 0.9995004 -0.9995005
vn -0.376849700000 0.926274400000 -0.000000013651
v -0.312538 -2.242838E-05 0.550031
vt 0 0
vn 0.447213600000 0.894427200000 0.000000017060
g GOLDMINETRACKS
o GOLDMINETRACKS0
usemtl tex_189626
s 1
f 1/1/1 2/2/2 3/3/3
f 4/4/4 5/5/5 6/6/6
f 7/7/7 8/8/8 9/9/9
f 10/10/10 11/11/11 12/12/12
f 13/13/13 10/10/10 12/12/12
f 14/14/14 15/15/15 16/16/16
f 17/17/17 14/14/14 16/16/16
f 18/18/18 19/19/19 20/20/20
f 21/21/21 22/22/22 23/23/23
f 24/24/24 21/21/21 23/23/23
f 25/25/25 26/26/26 27/27/27
f 28/28/28 25/25/25 27/27/27
f 29/29/29 30/30/30 31/31/31
f 32/32/32 29/29/29 31/31/31
f 29/29/29 33/33/33 34/34/34
f 35/35/35 29/29/29 34/34/34
f 36/36/36 37/37/37 38/38/38
f 39/39/39 36/36/36 38/38/38
f 40/40/40 41/41/41 42/42/42
f 43/43/43 40/40/40 42/42/42
f 44/44/44 45/45/45 46/46/46
f 47/47/47 44/44/44 46/46/46
f 48/48/48 49/49/49 50/50/50
f 51/51/51 48/48/48 50/50/50
f 52/52/52 53/53/53 54/54/54
f 55/55/55 52/52/52 54/54/54
f 56/56/56 57/57/57 58/58/58
f 59/59/59 56/56/56 58/58/58
f 56/56/56 60/60/60 61/61/61
f 62/62/62 56/56/56 61/61/61
f 63/63/63 64/64/64 65/65/65
f 66/66/66 63/63/63 65/65/65
f 67/67/67 68/68/68 69/69/69
f 67/67/67 70/70/70 68/68/68
f 71/71/71 72/72/72 73/73/73
f 71/71/71 74/74/74 72/72/72
f 75/75/75 76/76/76 77/77/77
f 75/75/75 78/78/78 76/76/76
f 79/79/79 80/80/80 81/81/81
f 79/79/79 81/81/81 82/82/82
f 82/82/82 81/81/81 83/83/83
f 82/82/82 83/83/83 84/84/84
f 84/84/84 83/83/83 85/85/85
f 84/84/84 85/85/85 86/86/86
f 87/87/87 86/86/86 88/88/88
f 87/87/87 84/84/84 86/86/86
f 89/89/89 84/84/84 87/87/87
f 89/89/89 82/82/82 84/84/84
f 90/90/90 82/82/82 89/89/89
f 90/90/90 79/79/79 82/82/82
f 91/91/91 92/92/92 93/93/93
f 91/91/91 94/94/94 92/92/92
f 95/95/95 94/94/94 91/91/91
f 95/95/95 96/96/96 94/94/94
f 97/97/97 96/96/96 95/95/95
f 97/97/97 98/98/98 96/96/96
o GOLDMINETRACKS1
usemtl tex_189623
s 1
f 99/99/99 100/100/100 101/101/101
f 102/102/102 103/103/103 104/104/104
f 102/102/102 105/105/105 103/103/103
f 106/106/106 107/107/107 108/108/108
f 106/106/106 109/109/109 107/107/107
f 110/110/110 111/111/111 112/112/112
f 110/110/110 113/113/113 111/111/111
f 114/114/114 115/115/115 116/116/116
f 114/114/114 117/117/117 115/115/115
f 118/118/118 119/119/119 120/120/120
f 118/118/118 121/121/121 119/119/119
f 122/122/122 123/123/123 124/124/124
f 122/122/122 125/125/125 123/123/123
f 126/126/126 127/127/127 128/128/128
f 126/126/126 129/129/129 127/127/127
f 130/130/130 131/131/131 132/132/132
f 130/130/130 133/133/133 131/131/131
f 134/134/134 135/135/135 136/136/136
f 134/134/134 137/137/137 135/135/135
f 138/138/138 139/139/139 140/140/140
f 138/138/138 141/141/141 139/139/139
f 142/142/142 143/143/143 144/144/144
f 142/142/142 145/145/145 143/143/143
f 146/146/146 147/147/147 148/148/148
f 146/146/146 149/149/149 147/147/147
f 150/150/150 151/151/151 152/152/152
f 150/150/150 153/153/153 151/151/151
f 154/154/154 155/155/155 156/156/156
f 154/154/154 157/157/157 155/155/155
f 158/158/158 159/159/159 160/160/160
f 158/158/158 161/161/161 159/159/159
f 162/162/162 163/163/163 164/164/164
f 162/162/162 165/165/165 163/163/163
f 166/166/166 167/167/167 168/168/168
f 166/166/166 169/169/169 167/167/167
f 170/170/170 171/171/171 172/172/172
f 170/170/170 173/173/173 171/171/171
f 173/173/173 174/174/174 171/171/171
f 173/173/173 175/175/175 174/174/174
f 99/99/99 101/101/101 176/176/176
