# Written by Marlamin's WoW Exporter. Original file: WORLD\EXPANSION02\DOODADS\HOWLINGFJORD\FOG\HFJORD_FOG_01.M2
mtllib HFJORD_FOG_01.mtl
v -43.60122 24.68506 -1.810124
vt 0 0
vn 0.000000000000 1.000000000000 0.000000000000
v -23.40561 24.68506 33.52188
vt 0 -1
vn 0.000000000000 1.000000000000 0.000000000000
v -8.269213 24.68506 -22.00573
vt 1 0
vn 0.000000000000 1.000000000000 0.000000000000
v 11.92639 24.68506 13.32627
vt 1 -1
vn 0.000000000000 1.000000000000 0.000000000000
v -44.74311 25.80884 -29.06315
vt 1 -1
vn 0.000000000000 1.000000000000 0.000000000000
v -60.36633 25.80884 12.99501
vt 1 0
vn 0.000000000000 1.000000000000 0.000000000000
v -2.684949 25.80884 -13.43993
vt 0 -1
vn 0.000000000000 1.000000000000 0.000000000000
v -18.30817 25.80884 28.61823
vt 0 0
vn 0.000000000000 1.000000000000 0.000000000000
v -60.31272 30.49561 6.006968
vt 1 -1
vn 0.167649700000 0.984787600000 -0.045683220000
v -19.31216 22.35499 22.4056
vt 1 0
vn 0.167649700000 0.984787600000 -0.045683220000
v -43.80453 29.57486 -35.70212
vt 0 -1
vn 0.167649700000 0.984787600000 -0.045683220000
v -2.803973 21.43424 -19.30348
vt 0 0
vn 0.167649700000 0.984787600000 -0.045683220000
v -5.738492 27.80157 -15.16527
vt 1 -1
vn 0.117603500000 0.990142900000 0.076068160000
v 8.653111 29.1795 24.13903
vt 1 0
vn 0.117603500000 0.990142900000 0.076068160000
v 33.26343 21.79212 -29.24583
vt 0 -1
vn 0.117603500000 0.990142900000 0.076068160000
v 47.65503 23.17005 10.05846
vt 0 0
vn 0.117603500000 0.990142900000 0.076068160000
v -1.730687 22.51942 17.93657
vt 1 -1
vn 0.077769720000 0.988449600000 -0.130074000000
v 34.52563 23.47308 -10.63154
vt 1 0
vn 0.077769720000 0.988449600000 -0.130074000000
v -30.07606 29.81134 -17.80561
vt 0 -1
vn 0.077769720000 0.988449600000 -0.130074000000
v 6.180265 30.765 -46.37372
vt 0 0
vn 0.077769720000 0.988449600000 -0.130074000000
v -12.49963 18.88318 31.24186
vt 1 -1
vn -0.191547400000 0.978495900000 0.076520820000
v 41.2748 31.45221 49.46012
vt 1 0
vn -0.191547400000 0.978495900000 0.076520820000
v 6.268041 18.22639 -23.72338
vt 0 -1
vn -0.191547400000 0.978495900000 0.076520820000
v 60.04247 30.79542 -5.505114
vt 0 0
vn -0.191547400000 0.978495900000 0.076520820000
v 8.772231 18.21152 -13.37939
vt 1 -1
vn 0.088343020000 0.990110200000 0.108982800000
v -46.00143 24.74713 -1.32109
vt 1 0
vn 0.088343020000 0.990110200000 0.108982800000
v 21.41712 23.36644 41.40209
vt 0 -1
vn 0.088343020000 0.990110200000 0.108982800000
v -33.35654 29.90205 53.46039
vt 0 0
vn 0.088343020000 0.990110200000 0.108982800000
v -43.09666 25.09852 -16.09802
vt 1 -1
vn -0.137619700000 0.977651800000 -0.158926600000
v -34.73571 16.89128 39.14885
vt 1 0
vn -0.137619700000 0.977651800000 -0.158926600000
v 12.15684 34.48121 -23.13462
vt 0 -1
vn -0.137619700000 0.977651800000 -0.158926600000
v 20.51779 26.27397 32.11225
vt 0 0
vn -0.137619700000 0.977651800000 -0.158926600000
v -13.09415 32.33593 -22.27949
vt 1 -1
vn 0.000152842700 0.979776600000 -0.200094600000
v -44.48319 26.89571 3.073982
vt 1 0
vn 0.000152842700 0.979776600000 -0.200094600000
v 12.80837 25.73334 8.442167
vt 0 -1
vn 0.000152842700 0.979776600000 -0.200094600000
v -18.58068 20.29312 33.79564
vt 0 0
vn 0.000152842700 0.979776600000 -0.200094600000
v 35.22007 28.31706 -9.593056
vt 1 -1
vn -0.037348740000 0.990048000000 0.135683700000
v -8.953085 21.10135 -47.4979
vt 1 0
vn -0.037348740000 0.990048000000 0.135683700000
v -3.266917 33.12905 34.38749
vt 0 -1
vn -0.037348740000 0.990048000000 0.135683700000
v -47.44007 25.91333 -3.517351
vt 0 0
vn -0.037348740000 0.990048000000 0.135683700000
v -41.93785 16.53696 -41.8335
vt 1 -1
vn -0.119741700000 0.978361600000 0.168732000000
v -30.63623 28.12033 14.01006
vt 1 0
vn -0.119741700000 0.978361600000 0.168732000000
v 14.58935 21.55827 -54.26385
vt 0 -1
vn -0.119741700000 0.978361600000 0.168732000000
v 25.89097 33.14164 1.579714
vt 0 0
vn -0.119741700000 0.978361600000 0.168732000000
v 21.19988 20.27145 59.48677
vt 1 -1
vn 0.018199340000 0.982393000000 -0.185937300000
v 31.43286 30.00396 9.590406
vt 1 0
vn 0.018199340000 0.982393000000 -0.185937300000
v -29.58182 23.22481 49.61999
vt 0 -1
vn 0.018199340000 0.982393000000 -0.185937300000
v -19.34884 32.95732 -0.2763764
vt 0 0
vn 0.018199340000 0.982393000000 -0.185937300000
v -7.525065 10.53527 -31.4972
vt 1 -1
vn 1.000000000000 0.000000000000 0.000000000000
v -7.525064 42.6935 -31.4972
vt 1 0
vn 1.000000000000 0.000000000000 0.000000000000
v -7.525065 10.53527 38.91567
vt 0 -1
vn 1.000000000000 0.000000000000 0.000000000000
v -7.525064 42.6935 38.91567
vt 0 0
vn 1.000000000000 0.000000000000 0.000000000000
v -1.943689 16.0393 -18.33833
vt 1 -1
vn 1.000000000000 0.000000000000 0.000000000000
v -1.943688 37.18947 -18.33833
vt 1 0
vn 1.000000000000 0.000000000000 0.000000000000
v -1.943689 16.0393 25.7568
vt 0 -1
vn 1.000000000000 0.000000000000 0.000000000000
v -1.943688 37.18947 25.7568
vt 0 0
vn 1.000000000000 0.000000000000 0.000000000000
g HFJORD_FOG_01
o HFJORD_FOG_010
usemtl tex_195955
s 1
f 1/1/1 2/2/2 3/3/3
f 4/4/4 3/3/3 2/2/2
f 53/53/53 54/54/54 55/55/55
f 56/56/56 55/55/55 54/54/54
f 49/49/49 50/50/50 51/51/51
f 52/52/52 51/51/51 50/50/50
f 45/45/45 46/46/46 47/47/47
f 48/48/48 47/47/47 46/46/46
f 41/41/41 42/42/42 43/43/43
f 44/44/44 43/43/43 42/42/42
f 37/37/37 38/38/38 39/39/39
f 40/40/40 39/39/39 38/38/38
f 33/33/33 34/34/34 35/35/35
f 36/36/36 35/35/35 34/34/34
f 29/29/29 30/30/30 31/31/31
f 32/32/32 31/31/31 30/30/30
f 25/25/25 26/26/26 27/27/27
f 28/28/28 27/27/27 26/26/26
f 21/21/21 22/22/22 23/23/23
f 24/24/24 23/23/23 22/22/22
f 17/17/17 18/18/18 19/19/19
f 20/20/20 19/19/19 18/18/18
f 13/13/13 14/14/14 15/15/15
f 16/16/16 15/15/15 14/14/14
f 9/9/9 10/10/10 11/11/11
f 12/12/12 11/11/11 10/10/10
f 5/5/5 6/6/6 7/7/7
f 8/8/8 7/7/7 6/6/6
