# Written by Marlamin's WoW Exporter. Original file: WORLD\AZEROTH\KARAZAHN\PASSIVEDOODADS\KARAZAHNWEBS\KARAZAHNWEB03.M2
mtllib KARAZAHNWEB03.mtl
v -0.09923358 0.1821209 -6.348087
vt 0.9907846 -0.4667443
vn 0.764774300000 -0.631902900000 -0.125773800000
v -1.696371 -1.050549 -0.01860553
vt 0.483637 -0.9787182
vn 0.866920800000 -0.494502900000 -0.062572630000
v -2.182977 -2.692095 -6.357157
vt 0.9899971 -0.9812089
vn 0.806231600000 -0.584783000000 -0.089552030000
v -0.09832216 0.1816874 6.160699
vt 0.007843138 -0.5008937
vn 0.621210500000 -0.772430900000 0.132090700000
v 1.174523 1.864213 -0.01860387
vt 0.5060225 -0.01574802
vn 0.507899900000 -0.859808300000 0.052607000000
v 2.936095 2.349861 6.160699
vt 0.007843138 -0.01574802
vn 0.578379600000 -0.809458100000 0.101264800000
v -0.7526577 0.836023 -0.01860553
vt 0.4947464 -0.5008175
vn 0.706159200000 -0.708024300000 -0.006386216000
v 2.762511 2.090463 -6.340136
vt 0.9914749 -0.01574802
vn 0.509740800000 -0.852709900000 -0.114236900000
v -2.17722 -2.56688 6.160697
vt 0.007843138 -0.976378
vn 0.846019900000 -0.524805200000 0.093967490000
g KARAZAHNWEB03
o KARAZAHNWEB030
usemtl tex_202653
s 1
f 1/1/1 2/2/2 3/3/3
f 4/4/4 5/5/5 6/6/6
f 7/7/7 5/5/5 4/4/4
f 5/5/5 7/7/7 8/8/8
f 7/7/7 1/1/1 8/8/8
f 9/9/9 7/7/7 4/4/4
f 2/2/2 7/7/7 9/9/9
f 7/7/7 2/2/2 1/1/1
