# Written by Marlamin's WoW Exporter. Original file: WORLD\GENERIC\UNDEAD\PASSIVE DOODADS\SIGNS\LORDAERON_CITYBANNER_01.M2
mtllib LORDAERON_CITYBANNER_01.mtl
v -0.2066003 6.119429 -2.405388
vt 0.8140097 -0.9903381
vn 0.000000000000 0.000000000000 1.000000000000
v -0.1831072 6.455396 -2.405388
vt 0.8140097 -0.1908213
vn 0.000000000000 0.000000000000 1.000000000000
v 0.1708204 6.243286 -2.405388
vt 0.9903381 -0.1908213
vn 0.000000000000 0.000000000000 1.000000000000
v -0.1831072 6.455396 2.455724
vt 0.9903381 -0.1908213
vn 0.000000000000 0.000000000000 -1.000000000000
v -0.2066003 6.119429 2.455724
vt 0.9903381 -0.9903381
vn 0.000000000000 0.000000000000 -1.000000000000
v 0.1708205 6.243286 2.455724
vt 0.8140097 -0.9903381
vn 0.000000000000 0.000000000000 -1.000000000000
v -0.2066003 6.119429 -2.405388
vt 0.9903381 -0.1908213
vn -0.900971400000 -0.433878500000 0.000000000729
v -0.2066003 6.119429 2.455724
vt 0.9903381 -0.9903381
vn -0.200151200000 -0.979765000000 0.000000000895
v -0.1831072 6.455396 2.455724
vt 0.8140097 -0.9903381
vn -0.829485500000 0.558528200000 -0.000000000761
v -0.1831072 6.455396 -2.405388
vt 0.8140097 -0.1908213
vn 0.017109010000 0.999853600000 -0.000000002285
v -0.1831072 6.455396 -2.405388
vt 0.9903381 -0.1908213
vn 0.017109010000 0.999853600000 -0.000000002285
v -0.1831072 6.455396 2.455724
vt 0.9903381 -0.9903381
vn -0.829485500000 0.558528200000 -0.000000000761
v 0.1708205 6.243286 2.455724
vt 0.8140097 -0.9903381
vn 0.868327100000 0.495992000000 -0.000000002443
v 0.1708204 6.243286 -2.405388
vt 0.8140097 -0.1908213
vn 0.737260300000 -0.675608800000 -0.000000000680
v 0.1708204 6.243286 -2.405388
vt 0.9903381 -0.1908213
vn 0.737260300000 -0.675608800000 -0.000000000680
v 0.1708205 6.243286 2.455724
vt 0.9903381 -0.9903381
vn 0.868327100000 0.495992000000 -0.000000002443
v -0.2066003 6.119429 2.455724
vt 0.8140097 -0.9903381
vn -0.200151200000 -0.979765000000 0.000000000895
v -0.2066003 6.119429 -2.405388
vt 0.8140097 -0.1908213
vn -0.900971400000 -0.433878500000 0.000000000729
v -0.2087429 -0.5505378 2.149562
vt 0.0009523034 -0.9995006
vn -0.999996700000 0.002582016000 0.000000000040
v -0.2076168 -0.1144177 2.151446
vt 0.0004995465 -0.9341798
vn -0.999996700000 0.002582017000 0.000000000383
v -0.2087429 -0.5505379 0.04881424
vt 0.5057689 -0.9995008
vn -0.999996700000 0.002582018000 0.000000000241
v -0.2076168 -0.1249936 2.151446
vt 0.0004994869 -0.9357639
vn -0.998249200000 -0.059148280000 0.000000005138
v -0.2022546 1.4361 2.151446
vt 0.0004995465 -0.7019477
vn -0.998251300000 -0.059111950000 0.000181272100
v -0.2076168 -0.1249939 0.0534082
vt 0.504665 -0.935764
vn -0.998253500000 -0.059075600000 0.000092057050
v -0.2022546 1.387884 0.0534082
vt 0.5046651 -0.7091694
vn -0.998253300000 -0.059079750000 0.000085098750
v -0.1968924 2.997194 2.151446
vt 0.0004996359 -0.4681315
vn -0.998251000000 -0.059116080000 0.000431027400
v -0.1968924 2.906112 0.0534082
vt 0.5046651 -0.4817736
vn -0.998252300000 -0.059095490000 0.000062798860
v -0.1915302 4.558287 2.151446
vt 0.0004996955 -0.2343154
vn -0.998250200000 -0.059127670000 0.000612073500
v -0.1915302 4.439501 0.0534082
vt 0.5046652 -0.2521068
vn -0.998253200000 -0.059080540000 0.000079956960
v -0.186168 6.11938 2.151446
vt 0.0004997551 -0.0004991293
vn -0.998253000000 -0.059077540000 0.000852129100
v -0.186168 5.938615 0.0534082
vt 0.5046653 -0.02757382
vn -0.998254800000 -0.059053990000 -0.000225668400
v -0.186168 6.11938 -2.005803
vt 0.9995005 -0.0004992485
vn -0.998248700000 -0.059148250000 -0.001022321000
v -0.1915302 4.558287 -2.005803
vt 0.9995005 -0.2343155
vn -0.998251700000 -0.059101120000 -0.000797897300
v -0.1968924 2.997194 -2.005803
vt 0.9995004 -0.4681317
vn -0.998250200000 -0.059127670000 -0.000570444400
v -0.2022546 1.4361 -2.005803
vt 0.9995003 -0.7019478
vn -0.998251100000 -0.059116080000 -0.000356063000
v -0.2076168 -0.1249936 -2.005803
vt 0.9995003 -0.935764
vn -0.998252500000 -0.059093780000 -0.000136346200
v -0.2076168 -0.1144177 -2.005803
vt 0.9995002 -0.9341799
vn -0.999996700000 0.002582015000 -0.000000000764
v -0.2087429 -0.5505378 -2.004659
vt 0.9992254 -0.9995008
vn -0.999996700000 0.002582017000 -0.000000000403
v -0.2076168 -0.1144183 0.0534082
vt 0.504665 -0.93418
vn -0.999996700000 0.002582018000 -0.000000000027
g LORDAERON_CITYBANNER_01
o LORDAERON_CITYBANNER_010
usemtl tex_200648
s 1
f 1/1/1 2/2/2 3/3/3
f 4/4/4 5/5/5 6/6/6
f 7/7/7 8/8/8 9/9/9
f 10/10/10 7/7/7 9/9/9
f 11/11/11 12/12/12 13/13/13
f 14/14/14 11/11/11 13/13/13
f 15/15/15 16/16/16 17/17/17
f 18/18/18 15/15/15 17/17/17
o LORDAERON_CITYBANNER_011
usemtl tex_200675
s 1
f 19/19/19 20/20/20 21/21/21
f 22/22/22 23/23/23 24/24/24
f 25/25/25 24/24/24 23/23/23
f 23/23/23 26/26/26 25/25/25
f 27/27/27 25/25/25 26/26/26
f 26/26/26 28/28/28 27/27/27
f 29/29/29 27/27/27 28/28/28
f 28/28/28 30/30/30 29/29/29
f 31/31/31 29/29/29 30/30/30
f 32/32/32 33/33/33 31/31/31
f 29/29/29 31/31/31 33/33/33
f 33/33/33 34/34/34 29/29/29
f 27/27/27 29/29/29 34/34/34
f 34/34/34 35/35/35 27/27/27
f 25/25/25 27/27/27 35/35/35
f 35/35/35 36/36/36 25/25/25
f 24/24/24 25/25/25 36/36/36
f 37/37/37 38/38/38 39/39/39
f 21/21/21 39/39/39 38/38/38
f 39/39/39 21/21/21 20/20/20
