# Written by Marlamin's WoW Exporter. Original file: WORLD\AZEROTH\BURNINGSTEPPES\PASSIVEDOODADS\ORCSLEEPMATS\ORCSLEEPMAT03.M2
mtllib ORCSLEEPMAT03.mtl
v 1.87966 0.006925 0.819833
vt 0.000499517 -0.9995
vn 0.000000000000 1.000000000000 0.000000000000
v 1.87966 0.006925 -1.11796
vt 0.9995 -0.9995
vn 0.000000000000 1.000000000000 0.000000000000
v -1.59048 0.006925 -1.11796
vt 0.9995 -0.000499845
vn 0.000000000000 1.000000000000 0.000000000000
v -1.59048 0.006925 0.819833
vt 0.000499725 -0.000499547
vn 0.000000000000 1.000000000000 0.000000000000
g ORCSLEEPMAT03
o ORCSLEEPMAT030
usemtl tex_189194
s 1
f 1/1/1 2/2/2 3/3/3
f 1/1/1 3/3/3 4/4/4
