# Written by Marlamin's WoW Exporter. Original file: WORLD\LORDAERON\PLAGUELAND\PASSIVEDOODADS\BUSHES\PLAGUELANDWESTERNBUSH01.M2
mtllib PLAGUELANDWESTERNBUSH01.mtl
v -0.09181693 -0.3306854 -2.060399
vt 0.7694982 -0.8164822
vn -0.005060456000 0.927746100000 0.373177700000
v -1.914795 -0.3306854 -2.679648
vt 1.163886 -0.9051885
vn 0.165679800000 0.870504900000 0.463434400000
v -1.053473 2.701596 -0.8932728
vt 0.6850393 -0.01574802
vn 0.281742800000 0.879862100000 0.382705600000
v -1.8479 -0.257763 3.229757
vt 0.7694982 -0.8164822
vn 0.171896900000 0.876149600000 -0.450348000000
v -0.01594822 -0.2577631 2.629557
vt 0.1417323 -0.992126
vn -0.001769226000 0.930897600000 -0.365276000000
v -1.006015 2.701596 1.423645
vt 0.6850393 -0.01574802
vn 0.282214700000 0.883409600000 -0.374088600000
v -0.05727953 2.701597 0.2834387
vt 0.007874016 -0.007874012
vn -0.005551753000 0.999982900000 0.001840197000
v 2.39159 -0.1011086 0.3422973
vt 0.7694982 -0.8164822
vn 0.372005200000 0.928226300000 0.002853829000
v 1.133828 2.701596 -0.624753
vt 0.6850393 -0.01574802
vn 0.387891500000 0.890275800000 -0.238640300000
v 2.967464 -0.296766 -1.379825
vt 1.163886 -0.9051885
vn 0.472605900000 0.872472100000 -0.124242000000
v -3.207876 -0.296766 -1.547568
vt 0.7694982 -0.8164822
vn -0.478131700000 0.862586300000 -0.165333200000
v -2.507411 -0.3157815 0.2277313
vt 0.1417323 -0.992126
vn -0.390267800000 0.920701200000 -0.000543243100
v -1.286523 2.701596 -0.6701822
vt 0.6850393 -0.01574802
vn -0.400578500000 0.875408100000 -0.270550300000
v -0.01594822 -0.2577631 2.629557
vt 0.7694982 -0.8164822
vn -0.001769226000 0.930897600000 -0.365276000000
v 0.9389136 2.701596 1.46015
vt 0.6850393 -0.01574802
vn -0.276765500000 0.884377400000 -0.375869000000
v 1.800102 -0.2577631 3.246394
vt 1.163886 -0.9051885
vn -0.162623100000 0.875552600000 -0.454930100000
v 1.733208 -0.3306854 -2.66301
vt 0.7694982 -0.8164822
vn -0.176547100000 0.870634300000 0.459159200000
v -0.09181693 -0.3306854 -2.060399
vt 0.1417323 -0.992126
vn -0.005060456000 0.927746100000 0.373177700000
v 0.8914562 2.701596 -0.8567672
vt 0.6850393 -0.01574802
vn -0.288946000000 0.877869800000 0.381909300000
v -2.507411 -0.3157815 0.2277313
vt 0.7694982 -0.8164822
vn -0.390267800000 0.920701200000 -0.000543243100
v -3.082157 -0.296766 1.946571
vt 1.163886 -0.9051885
vn -0.482529300000 0.861895800000 0.155888100000
v -1.248387 2.701596 1.19163
vt 0.6850393 -0.01574802
vn -0.401811300000 0.876680200000 0.264536400000
v 3.093184 -0.296766 2.114315
vt 0.7694982 -0.8164822
vn 0.468008700000 0.873449900000 0.134362200000
v 2.39159 -0.1011086 0.3422973
vt 0.1417323 -0.992126
vn 0.372005200000 0.928226300000 0.002853829000
v 1.171964 2.701596 1.23706
vt 0.6850393 -0.01574802
vn 0.386993400000 0.888845300000 0.245336700000
g PLAGUELANDWESTERNBUSH01
o PLAGUELANDWESTERNBUSH010
usemtl tex_203727
s 1
f 1/1/1 2/2/2 3/3/3
f 4/4/4 5/5/5 6/6/6
f 5/5/5 7/7/7 6/6/6
f 5/5/5 8/8/8 7/7/7
f 7/7/7 8/8/8 9/9/9
f 8/8/8 10/10/10 9/9/9
f 11/11/11 12/12/12 13/13/13
f 12/12/12 7/7/7 13/13/13
f 12/12/12 14/14/14 7/7/7
f 7/7/7 14/14/14 15/15/15
f 14/14/14 16/16/16 15/15/15
f 17/17/17 18/18/18 19/19/19
f 20/20/20 21/21/21 22/22/22
f 18/18/18 7/7/7 19/19/19
f 7/7/7 20/20/20 22/22/22
f 18/18/18 20/20/20 7/7/7
f 23/23/23 24/24/24 25/25/25
f 24/24/24 7/7/7 25/25/25
f 24/24/24 1/1/1 7/7/7
f 7/7/7 1/1/1 3/3/3
