# Written by Marlamin's WoW Exporter. Original file: WORLD\LORDAERON\PLAGUELAND\PASSIVEDOODADS\BUSHES\PLAGUELANDWESTERNBUSH04.M2
mtllib PLAGUELANDWESTERNBUSH04.mtl
v -0.0918164 -0.330683 -2.0604
vt 0.769498 -0.816482
vn -0.005060460000 0.927746000000 0.373178000000
v -1.91479 -0.330683 -2.67965
vt 1.16389 -0.905189
vn 0.165680000000 0.870505000000 0.463434000000
v -1.05347 2.70159 -0.893269
vt 0.685039 -0.015748
vn 0.281743000000 0.879862000000 0.382706000000
v -1.8479 -0.257763 3.22976
vt 0.769498 -0.816482
vn 0.171897000000 0.876150000000 -0.450348000000
v -0.0159478 -0.257763 2.62956
vt 0.141732 -0.992126
vn -0.001769230000 0.930898000000 -0.365276000000
v -1.00601 2.70159 1.42364
vt 0.685039 -0.015748
vn 0.282215000000 0.883410000000 -0.374089000000
v -0.0572794 2.70159 0.283436
vt 0.00787402 -0.00787401
vn -0.005551750000 0.999983000000 0.001840200000
v 2.39159 -0.101108 0.342294
vt 0.769498 -0.816482
vn 0.372005000000 0.928226000000 0.002853840000
v 1.13382 2.70159 -0.624753
vt 0.685039 -0.015748
vn 0.387891000000 0.890276000000 -0.238640000000
v 2.96746 -0.296764 -1.37982
vt 1.16389 -0.905189
vn 0.472606000000 0.872472000000 -0.124242000000
v -3.20787 -0.296764 -1.54756
vt 0.769498 -0.816482
vn -0.478132000000 0.862586000000 -0.165333000000
v -2.50741 -0.315781 0.227731
vt 0.141732 -0.992126
vn -0.390268000000 0.920701000000 -0.000543256000
v -1.28652 2.70159 -0.670178
vt 0.685039 -0.015748
vn -0.400579000000 0.875408000000 -0.270550000000
v -0.0159478 -0.257763 2.62956
vt 0.769498 -0.816482
vn -0.001769230000 0.930898000000 -0.365276000000
v 0.938911 2.70159 1.46015
vt 0.685039 -0.015748
vn -0.276765000000 0.884377000000 -0.375869000000
v 1.8001 -0.257763 3.24639
vt 1.16389 -0.905189
vn -0.162623000000 0.875553000000 -0.454930000000
v 1.73321 -0.330683 -2.66301
vt 0.769498 -0.816482
vn -0.176547000000 0.870634000000 0.459159000000
v -0.0918164 -0.330683 -2.0604
vt 0.141732 -0.992126
vn -0.005060460000 0.927746000000 0.373178000000
v 0.891453 2.70159 -0.856764
vt 0.685039 -0.015748
vn -0.288946000000 0.877870000000 0.381909000000
v -2.50741 -0.315781 0.227731
vt 0.769498 -0.816482
vn -0.390268000000 0.920701000000 -0.000543256000
v -3.08216 -0.296764 1.94657
vt 1.16389 -0.905189
vn -0.482529000000 0.861896000000 0.155888000000
v -1.24838 2.70159 1.19163
vt 0.685039 -0.015748
vn -0.401811000000 0.876680000000 0.264536000000
v 3.09318 -0.296764 2.11431
vt 0.769498 -0.816482
vn 0.468009000000 0.873450000000 0.134362000000
v 2.39159 -0.101108 0.342294
vt 0.141732 -0.992126
vn 0.372005000000 0.928226000000 0.002853840000
v 1.17196 2.70159 1.23706
vt 0.685039 -0.015748
vn 0.386993000000 0.888845000000 0.245337000000
g PLAGUELANDWESTERNBUSH04
o PLAGUELANDWESTERNBUSH040
usemtl tex_203730
s 1
f 1/1/1 2/2/2 3/3/3
f 4/4/4 5/5/5 6/6/6
f 5/5/5 7/7/7 6/6/6
f 5/5/5 8/8/8 7/7/7
f 7/7/7 8/8/8 9/9/9
f 8/8/8 10/10/10 9/9/9
f 11/11/11 12/12/12 13/13/13
f 12/12/12 7/7/7 13/13/13
f 12/12/12 14/14/14 7/7/7
f 7/7/7 14/14/14 15/15/15
f 14/14/14 16/16/16 15/15/15
f 17/17/17 18/18/18 19/19/19
f 20/20/20 21/21/21 22/22/22
f 18/18/18 7/7/7 19/19/19
f 7/7/7 20/20/20 22/22/22
f 18/18/18 20/20/20 7/7/7
f 23/23/23 24/24/24 25/25/25
f 24/24/24 7/7/7 25/25/25
f 24/24/24 1/1/1 7/7/7
f 7/7/7 1/1/1 3/3/3
