# Written by Marlamin's WoW Exporter. Original file: WORLD\LORDAERON\SCHOLOMANCE\PASSIVEDOODADS\CANDLES\SCHOLME_PURPLERUG.M2
mtllib SCHOLME_PURPLERUG.mtl
v 2.8755 0.003722222 -0.03062374
vt 0.9921875 -0.09375
vn 0.000000000000 1.000000000000 0.000000000000
v 3.156182 0.003722222 -0.03361298
vt 0.9921875 -0.00390625
vn 0.000000000000 1.000000000000 0.000000000000
v 3.141376 0.003722222 -2.10406
vt 0.00390625 -0.00390625
vn 0.000000000000 1.000000000000 0.000000000000
v -3.156303 0.003722222 -2.070526
vt 0.00390625 -0.00390625
vn 0.000000000000 1.000000000000 0.000000000000
v -2.87561 0.003722222 8.717647E-08
vt 0.9921875 -0.09375
vn 0.000000000000 1.000000000000 0.000000000000
v -2.875419 0.003722222 -1.832324
vt 0.00390625 -0.09375
vn 0.000000000000 1.000000000000 0.000000000000
v -3.156303 0.003722222 -1.553861E-07
vt 0.9921875 -0.00390625
vn 0.000000000000 1.000000000000 0.000000000000
v -3.156303 0.003722222 2.070526
vt 0.9921875 -0.00390625
vn 0.000000000000 1.000000000000 0.000000000000
v -2.8758 0.003722222 1.832324
vt 0.9921875 -0.09375
vn 0.000000000000 1.000000000000 0.000000000000
v -2.87561 0.003722222 8.717647E-08
vt 0.00390625 -0.09375
vn 0.000000000000 1.000000000000 0.000000000000
v -3.156303 0.003722222 -1.553861E-07
vt 0.00390625 -0.00390625
vn 0.000000000000 1.000000000000 0.000000000000
v 3.170989 0.003722222 2.036834
vt 0.9921875 -0.00390625
vn 0.000000000000 1.000000000000 0.000000000000
v 2.8755 0.003722222 -0.03062374
vt 0.00390625 -0.09375
vn 0.000000000000 1.000000000000 0.000000000000
v 2.888412 0.003722222 1.801632
vt 0.9921875 -0.09375
vn 0.000000000000 1.000000000000 0.000000000000
v 3.156182 0.003722222 -0.03361298
vt 0.00390625 -0.00390625
vn 0.000000000000 1.000000000000 0.000000000000
v -2.8758 0.003722222 1.832324
vt 0.01 -0.09669393
vn 0.000000000000 1.000000000000 0.000000000000
v 0.00655147 0.003722222 1.832289
vt 0.01 -0.99
vn 0.000000000000 1.000000000000 0.000000000000
v -2.87561 0.003722222 8.717647E-08
vt 0.5 -0.09675288
vn 0.000000000000 1.000000000000 0.000000000000
v -0.00655148 0.003722222 -1.832289
vt 0.9900001 -0.99
vn 0.000000000000 1.000000000000 0.000000000000
v -2.875419 0.003722222 -1.832324
vt 0.99 -0.09681183
vn 0.000000000000 1.000000000000 0.000000000000
v 2.862587 0.003722222 -1.86288
vt 0.9900001 -0.09669393
vn 0.000000000000 1.000000000000 0.000000000000
v 2.8755 0.003722222 -0.03062374
vt 0.5000001 -0.09675288
vn 0.000000000000 1.000000000000 0.000000000000
v 2.888412 0.003722222 1.801632
vt 0.01000011 -0.09681183
vn 0.000000000000 1.000000000000 0.000000000000
v 2.862587 0.003722222 -1.86288
vt 0.00390625 -0.09375
vn 0.000000000000 1.000000000000 0.000000000000
g SCHOLME_PURPLERUG
o SCHOLME_PURPLERUG0
usemtl tex_203860
s 1
f 1/1/1 2/2/2 3/3/3
f 4/4/4 5/5/5 6/6/6
f 5/5/5 4/4/4 7/7/7
f 8/8/8 9/9/9 10/10/10
f 10/10/10 11/11/11 8/8/8
f 12/12/12 13/13/13 14/14/14
f 13/13/13 12/12/12 15/15/15
f 16/16/16 17/17/17 18/18/18
f 18/18/18 17/17/17 19/19/19
f 19/19/19 20/20/20 18/18/18
f 21/21/21 19/19/19 22/22/22
f 22/22/22 19/19/19 17/17/17
f 17/17/17 23/23/23 22/22/22
f 3/3/3 24/24/24 1/1/1
