# Written by Marlamin's WoW Exporter. Original file: WORLD\GENERIC\HUMAN\PASSIVE DOODADS\HAYPILES\SHADOWFANGHAYPILE01.M2
mtllib SHADOWFANGHAYPILE01.mtl
v -0.1624237 0.01612457 0.8476157
vt 0.5060386 -0.3784997
vn -0.081773770000 0.752056600000 -0.654006000000
v 0.6615388 0.01612457 1.106652
vt 0.5060385 -0.582544
vn -0.062710550000 0.839719000000 -0.539387900000
v -0.1604043 0.4172847 0.3865649
vt 0.749795 -0.3784998
vn 0.003301269000 0.979307800000 -0.202349400000
v -1.819217 0.01612457 0.009491391
vt 0.991332 -0.9859912
vn -0.399911300000 0.916545600000 -0.003884633000
v -0.9545553 0.3933977 0.009491391
vt 0.9913322 -0.7062497
vn -0.079391040000 0.996043200000 0.039937650000
v -1.664129 0.01612457 -1.042144
vt 0.5060384 -0.9859911
vn -0.093569770000 0.947161900000 0.306804400000
v -1.664129 0.01612457 0.9382877
vt 0.5060384 -0.9859911
vn -0.149537300000 0.926505100000 -0.345292500000
v -0.1624237 0.01612457 -1.11142
vt 0.5060386 -0.3784997
vn 0.016794420000 0.903767300000 0.427694600000
v -0.1626793 0.337769 -0.4317585
vt 0.749795 -0.3784998
vn 0.027945190000 0.987031000000 0.158078800000
v 1.351436 0.01612457 -0.922527
vt 0.5060384 -0.9859911
vn 0.141877000000 0.958455100000 0.247456500000
v -1.461448 0.411087 -0.1295044
vt 0.991332 -0.9859912
vn 0.047306690000 0.997842300000 0.045528270000
v -0.1672532 0.2372148 0.009491391
vt 0.9913323 -0.3784998
vn 0.040513520000 0.993014700000 0.110817500000
v 0.5957921 0.3248042 0.009491391
vt 0.9331308 -0.7062497
vn 0.108548000000 0.992972100000 0.047155970000
v 1.379898 0.4386915 0.009491391
vt 0.8781261 -0.9859912
vn -0.143727300000 0.989553200000 -0.011262330000
v 1.528123 0.01612457 0.9415098
vt 0.5060384 -0.9859911
vn 0.161660200000 0.964443700000 -0.209079400000
v 1.156436 0.01612457 0.009491391
vt 0.8781261 -0.9859912
vn 0.481826700000 0.875125100000 0.044711800000
g SHADOWFANGHAYPILE01
o SHADOWFANGHAYPILE010
usemtl tex_198295
s 1
f 1/1/1 2/2/2 3/3/3
f 4/4/4 5/5/5 6/6/6
f 4/4/4 7/7/7 5/5/5
f 8/8/8 9/9/9 10/10/10
f 8/8/8 6/6/6 9/9/9
f 9/9/9 6/6/6 5/5/5
f 11/11/11 5/5/5 6/6/6
f 11/11/11 7/7/7 5/5/5
f 1/1/1 3/3/3 7/7/7
f 5/5/5 7/7/7 3/3/3
f 3/3/3 12/12/12 5/5/5
f 5/5/5 12/12/12 9/9/9
f 9/9/9 12/12/12 13/13/13
f 13/13/13 10/10/10 9/9/9
f 14/14/14 10/10/10 13/13/13
f 14/14/14 13/13/13 15/15/15
f 16/16/16 13/13/13 15/15/15
f 16/16/16 10/10/10 13/13/13
f 2/2/2 15/15/15 3/3/3
f 3/3/3 15/15/15 13/13/13
f 13/13/13 12/12/12 3/3/3
