# Written by Marlamin's WoW Exporter. Original file: WORLD\LORDAERON\TIRISFALGLADE\PASSIVEDOODADS\GRAVES\TIRISFALLGRAVEDIRTMOUND02.M2
mtllib TIRISFALLGRAVEDIRTMOUND02.mtl
v 0.930411 0.04418876 0.004742044
vt 0.2242981 -0.4735292
vn 0.403091200000 0.915156700000 -0.002402273000
v 1.207676 -0.1529161 0.004741985
vt 0.006292486 -0.2536841
vn 0.577328300000 0.816509700000 -0.002003943000
v 1.059132 -0.1529161 -0.5199459
vt 0.9872701 -0.253725
vn 0.373542800000 0.830472100000 0.413257600000
v 0.009756743 0.1683482 0.004742097
vt 0.4942152 -0.6908213
vn -0.000000011984 1.000000000000 -0.000000041692
v 0.8300176 0.04418876 -0.3284101
vt 0.7701015 -0.4736096
vn 0.252024300000 0.901733600000 0.351226600000
v 0.009756574 0.04418876 -0.4014202
vt 0.2244749 -0.4735271
vn -0.003093111000 0.872346500000 0.488878400000
v 0.8300179 0.04418876 0.3378942
vt 0.7684214 -0.4736096
vn 0.251689400000 0.899846600000 -0.356270300000
v 1.059133 -0.1529161 0.5294299
vt 0.9866374 -0.253725
vn 0.368668100000 0.834416600000 -0.409674100000
v 0.009756879 0.04418876 0.4109043
vt 0.2243246 -0.4735271
vn 0.003093160000 0.872346500000 -0.488878300000
v 0.009756846 -0.1529161 0.6444151
vt 0.00576126 -0.2536852
vn 0.004791351000 0.761479900000 -0.648170900000
v -0.8105043 0.04418876 0.3378943
vt 0.7684214 -0.4736089
vn -0.252024700000 0.901733600000 -0.351226500000
v -1.039619 -0.1529161 0.52943
vt 0.9866374 -0.2537248
vn -0.381488500000 0.826675000000 -0.413612100000
v -0.9108975 0.04418872 0.004742097
vt 0.2242981 -0.4735285
vn -0.421156700000 0.906946000000 0.008715693000
v -0.8105046 0.04418876 -0.3284101
vt 0.7701015 -0.4736089
vn -0.259266000000 0.898744300000 0.353609600000
v -1.164856 -0.1529161 0.004742115
vt 0.006292516 -0.2536839
vn -0.605680000000 0.795670700000 0.007725853000
v -1.039619 -0.1529161 -0.5199457
vt 0.9872701 -0.2537248
vn -0.374990900000 0.835046400000 0.402590800000
v 0.009756457 -0.1529161 -0.6349309
vt 0.006031775 -0.2536852
vn -0.004791342000 0.761479700000 0.648171000000
v -1.684505 -0.3609423 0.004742149
vt 0.4997064 -0.2036455
vn -0.382623300000 0.923863800000 0.008660591000
v -1.400363 -0.3609423 0.7764268
vt 0.1512811 -0.2041197
vn -0.292291200000 0.898708000000 -0.326940000000
v -1.039619 -0.1529161 0.52943
vt 0.1822198 -0.002949953
vn -0.223698000000 0.890012300000 -0.397287400000
v 0.009756846 -0.1529161 0.6444151
vt -0.6358404 -0.002953589
vn -0.002630867000 0.821758400000 -0.569829900000
v 0.00958208 -0.3609423 0.9455413
vt -0.6975311 -0.2040648
vn -0.002478330000 0.822272700000 -0.569088200000
v 1.059133 -0.1529161 0.5294299
vt 0.1822198 -0.002948761
vn 0.209300000000 0.896590100000 -0.390281700000
v 1.48815 -0.3609423 0.7764267
vt 0.1512811 -0.2041165
vn 0.290880900000 0.913656500000 -0.283936800000
v 1.207676 -0.1529161 0.004741985
vt 0.4993512 -0.002806306
vn 0.416581800000 0.909028100000 0.011295330000
v 1.652462 -0.3609423 0.004741951
vt 0.4997063 -0.2036423
vn 0.416995300000 0.908888400000 0.006063011000
v 1.059132 -0.1529161 -0.5199459
vt 0.811978 -0.002948761
vn 0.218527900000 0.895135800000 0.388558300000
v 1.48815 -0.3609423 -0.7669428
vt 0.8430876 -0.2041165
vn 0.286558900000 0.918047200000 0.273995000000
v 0.009756457 -0.1529161 -0.6349309
vt 1.604915 -0.002953589
vn 0.001255706000 0.822297000000 0.569057100000
v 0.009581505 -0.3609423 -0.9360571
vt 1.666009 -0.2040648
vn 0.000630969200 0.821709700000 0.569905900000
v -1.039619 -0.1529161 -0.5199457
vt 0.811978 -0.002949953
vn -0.247972300000 0.889342700000 0.384160500000
v -1.400364 -0.3609423 -0.7669425
vt 0.8430876 -0.2041197
vn -0.288977900000 0.906474600000 0.307888700000
v -1.164856 -0.1529161 0.004742115
vt 0.4993514 -0.002807438
vn -0.383538100000 0.923332200000 0.018876380000
g TIRISFALLGRAVEDIRTMOUND02
o TIRISFALLGRAVEDIRTMOUND020
usemtl tex_204110
s 1
f 1/1/1 2/2/2 3/3/3
f 4/4/4 5/5/5 6/6/6
f 4/4/4 1/1/1 5/5/5
f 4/4/4 7/7/7 1/1/1
f 7/7/7 2/2/2 1/1/1
f 7/7/7 8/8/8 2/2/2
f 9/9/9 8/8/8 7/7/7
f 9/9/9 10/10/10 8/8/8
f 11/11/11 10/10/10 9/9/9
f 11/11/11 12/12/12 10/10/10
f 4/4/4 11/11/11 9/9/9
f 4/4/4 9/9/9 7/7/7
f 4/4/4 13/13/13 11/11/11
f 4/4/4 14/14/14 13/13/13
f 4/4/4 6/6/6 14/14/14
f 13/13/13 12/12/12 11/11/11
f 13/13/13 15/15/15 12/12/12
f 14/14/14 15/15/15 13/13/13
f 14/14/14 16/16/16 15/15/15
f 6/6/6 16/16/16 14/14/14
f 6/6/6 17/17/17 16/16/16
f 5/5/5 17/17/17 6/6/6
f 5/5/5 3/3/3 17/17/17
f 1/1/1 3/3/3 5/5/5
o TIRISFALLGRAVEDIRTMOUND021
usemtl tex_204109
s 1
f 18/18/18 19/19/19 20/20/20
f 21/21/21 20/20/20 19/19/19
f 19/19/19 22/22/22 21/21/21
f 23/23/23 21/21/21 22/22/22
f 22/22/22 24/24/24 23/23/23
f 25/25/25 23/23/23 24/24/24
f 24/24/24 26/26/26 25/25/25
f 27/27/27 25/25/25 26/26/26
f 26/26/26 28/28/28 27/27/27
f 29/29/29 27/27/27 28/28/28
f 28/28/28 30/30/30 29/29/29
f 31/31/31 29/29/29 30/30/30
f 30/30/30 32/32/32 31/31/31
f 33/33/33 31/31/31 32/32/32
f 32/32/32 18/18/18 33/33/33
f 20/20/20 33/33/33 18/18/18
