# Written by Marlamin's WoW Exporter. Original file: WORLD\EXPANSION05\DOODADS\HUMAN\DOODADS\6HU_BARRACKS_SCATTEREDPAPERS02.M2
mtllib 6HU_BARRACKS_SCATTEREDPAPERS02.mtl
v -0.2439948 0.03254937 -0.3775152
vt 0.031225 -0.621818
vn 0.175966000000 0.951689600000 0.251640500000
v -0.2031562 0.01091609 -0.424787
vt 0.032144 -0.65439
vn 0.146092600000 0.962006000000 0.230654300000
v -0.3847428 0.01456187 -0.518986
vt 0.141504 -0.630311
vn 0.220280600000 0.950237800000 0.220282900000
v -1.210233 -0.004825172 -0.288784
vt 0.139534 -0.912676
vn 0.438670700000 0.813828500000 -0.381118400000
v -1.362716 0.00804764 -0.1676165
vt 0.250606 -0.924866
vn 0.468844500000 0.840286100000 -0.272220500000
v -1.279096 -0.01241063 -0.08682898
vt 0.246968 -0.855207
vn 0.427179800000 0.889179500000 -0.163942900000
v -1.112593 -0.02861498 -0.1842053
vt 0.139889 -0.827847
vn 0.189095000000 0.968950600000 -0.159304200000
v -1.025247 -0.01341036 -0.370834
vt 0.031185 -0.872437
vn 0.260797700000 0.882056800000 -0.392377800000
v -1.155154 -0.02202398 -0.2297894
vt 0.139627 -0.863531
vn 0.371891900000 0.871043700000 -0.320903800000
v -0.9768512 -0.02283562 -0.3070578
vt 0.036174 -0.82602
vn 0.051061140000 0.974258600000 -0.219574500000
v -1.172336 -0.02366817 0.01121643
vt 0.241211 -0.771729
vn 0.175217200000 0.981614900000 0.075703160000
v -1.079758 0.000405858 -0.4339969
vt 0.028781 -0.922026
vn 0.318039400000 0.861316000000 -0.396214200000
v 0.3940443 -0.02399042 0.5086233
vt 0.039745 -0.769051
vn -0.185279200000 0.982649300000 0.008477558000
v 0.3501102 -0.02456084 0.3842391
vt 0.036174 -0.82602
vn -0.028171710000 0.974258400000 -0.223666800000
v 0.1259692 -0.0321854 0.474236
vt 0.139889 -0.827847
vn 0.122194200000 0.968950300000 -0.214950700000
v 0.3193668 -0.01212631 0.2831922
vt 0.031185 -0.872437
vn 0.108708900000 0.882056800000 -0.458430200000
v 0.05293115 -0.000800093 0.3001854
vt 0.139534 -0.912676
vn 0.279466200000 0.813828900000 -0.509491100000
v 0.09413172 -0.02349006 0.3983699
vt 0.139627 -0.863531
vn 0.237684000000 0.871043600000 -0.429871400000
v 0.2807745 0.006101085 0.1801082
vt 0.028781 -0.922026
vn 0.161076200000 0.861316600000 -0.481859100000
v -0.1911578 0.01618269 0.3804454
vt 0.250606 -0.924866
vn 0.345499700000 0.840285200000 -0.417792600000
v -0.124597 -0.0108074 0.518645
vt 0.246968 -0.855207
vn 0.343926900000 0.889179200000 -0.301785600000
v -0.1778399 0.01625387 0.4868893
vt 0.139534 -0.601033
vn -0.066258570000 0.935265100000 -0.347690900000
v -0.379297 0.04322462 0.4082092
vt 0.250606 -0.613223
vn 0.000307849900 0.946206900000 -0.323561900000
v -0.410135 0.0003609657 0.5335867
vt 0.246968 -0.543564
vn 0.042064160000 0.964761900000 -0.259740400000
v -0.2236818 -0.03359 0.6390104
vt 0.139889 -0.516205
vn -0.023084230000 0.990977700000 -0.132023900000
v 0.004225916 -0.001733614 0.6186134
vt 0.031185 -0.560795
vn -0.120241200000 0.962185600000 -0.244419600000
v -0.2037008 -0.01978067 0.5727024
vt 0.139627 -0.551889
vn -0.052658240000 0.958119300000 -0.281486400000
v -0.02995721 -0.0214812 0.7006817
vt 0.036174 -0.514378
vn -0.088609800000 0.992563600000 -0.083461120000
v -0.4446128 -0.02322553 0.6908123
vt 0.241211 -0.460087
vn 0.082473550000 0.994731400000 -0.060889620000
v 0.03440518 0.02721378 0.5310171
vt 0.028781 -0.610383
vn -0.107184200000 0.954442300000 -0.278480700000
v 0.5439401 0.00904231 0.8078786
vt 0.031225 -0.621818
vn -0.298681100000 0.834718800000 0.462638200000
v 0.5142069 -0.004087501 0.7427428
vt 0.032144 -0.65439
vn -0.291281800000 0.863904800000 0.410881100000
v 0.3022732 -0.001874788 0.8937801
vt 0.141504 -0.630311
vn -0.215285200000 0.835573300000 0.505439900000
v 0.2095111 -0.03268582 0.6731084
vt 0.140893 -0.735914
vn -0.113025300000 0.973999000000 0.196344700000
v 0.1771743 -0.03760797 0.5961612
vt 0.140551 -0.77157
vn -0.023034290000 0.999469300000 0.023030560000
v -0.03728621 -0.02565919 0.6887785
vt 0.241211 -0.771729
vn 0.190593000000 0.981615000000 0.010311350000
v 0.01129648 -0.0228549 0.8288866
vt 0.245613 -0.707568
vn -0.018360110000 0.951207800000 0.308004200000
v 0.2569225 -0.02202635 0.7858675
vt 0.141243 -0.683109
vn -0.173150300000 0.918263900000 0.356104500000
v 0.03798687 -0.009308282 0.9157228
vt 0.249766 -0.66706
vn -0.111425400000 0.854280200000 0.507729900000
v 0.2747833 -0.0149559 0.8283511
vt 0.141342 -0.662522
vn -0.204583100000 0.857525800000 0.472011900000
v 0.07172147 0.00904231 1.006233
vt 0.251872 -0.622977
vn -0.128270800000 0.826234800000 0.548527700000
v 0.4829423 -0.01304886 0.6832531
vt 0.034462 -0.684119
vn -0.262979700000 0.934152100000 0.241250200000
v -1.059217 -0.0112743 0.1528182
vt 0.249766 -0.66706
vn -0.280426100000 0.854280400000 0.437682700000
v -1.011461 0.002635297 0.2083163
vt 0.251872 -0.622977
vn -0.310362700000 0.826235300000 0.470117200000
v -0.8770583 -0.005639785 0.06781292
vt 0.141504 -0.630311
vn -0.377061500000 0.835572700000 0.399553400000
v -0.7660261 -0.007317 -0.09523657
vt 0.032144 -0.65439
vn -0.415591500000 0.863904500000 0.284521800000
v -0.9376432 -0.0209145 0.002991147
vt 0.141243 -0.683109
vn -0.285798500000 0.918263900000 0.274063300000
v -0.913787 -0.01555516 0.02850893
vt 0.141342 -0.662522
vn -0.355440600000 0.857525200000 0.371904000000
v -0.803879 -0.01410965 -0.1293263
vt 0.034462 -0.684119
vn -0.330274000000 0.934151900000 0.135201200000
v -1.000966 -0.0289943 -0.06473563
vt 0.140893 -0.735914
vn -0.174048300000 0.973999100000 0.145027500000
v -0.9129482 -0.02240325 -0.2301518
vt 0.039745 -0.769051
vn -0.176741700000 0.982649400000 -0.056236690000
v -1.044166 -0.03272524 -0.1109569
vt 0.140551 -0.77157
vn -0.029586050000 0.999469400000 0.013624230000
v -0.7277794 0.002635297 -0.0567299
vt 0.031225 -0.621818
vn -0.440463300000 0.834718700000 0.330509800000
v -1.100999 -0.02154254 0.09808233
vt 0.245613 -0.707568
vn -0.123929900000 0.951207900000 0.282568600000
v -0.5173443 0.002741774 0.8784679
vt 0.249766 -0.355417
vn 0.140094500000 0.951731000000 0.273096400000
v -0.5439398 0.0318848 0.9552985
vt 0.251872 -0.311335
vn 0.150966700000 0.940479300000 0.304479300000
v -0.3340218 0.01454714 1.005827
vt 0.141504 -0.318669
vn 0.093262400000 0.944306500000 0.315574700000
v -0.1155165 0.01103301 1.021332
vt 0.032144 -0.342747
vn 0.021628990000 0.955428700000 0.294428700000
v -0.3056427 -0.01745609 0.9114753
vt 0.141243 -0.371467
vn 0.052406850000 0.974863600000 0.216551400000
v -0.3168106 -0.006227371 0.9486239
vt 0.141342 -0.35088
vn 0.084038320000 0.952987000000 0.291124200000
v -0.1039379 -0.003198769 0.9659622
vt 0.034462 -0.372477
vn -0.027387970000 0.980110500000 0.196553800000
v -0.2760046 -0.03438469 0.8128731
vt 0.140893 -0.424272
vn 0.020422180000 0.992486500000 0.120637800000
v -0.06808136 -0.02057528 0.8049673
vt 0.039745 -0.457409
vn -0.073793500000 0.995033400000 0.066805710000
v -0.2557684 -0.04220171 0.7455958
vt 0.140551 -0.459927
vn -0.001646203000 0.999850900000 0.017192000000
v -0.1311142 0.0318848 1.079547
vt 0.031225 -0.310175
vn 0.038443110000 0.943959900000 0.327813700000
v -0.4881441 -0.01877196 0.8077962
vt 0.245613 -0.395926
vn 0.099888370000 0.985540900000 0.136862700000
v 0.08959129 -0.002329018 -0.7474645
vt 0.031185 -0.872437
vn -0.213609100000 0.965058900000 -0.151764700000
v -0.005884409 0.01633258 -0.9340932
vt 0.139534 -0.912676
vn -0.209953100000 0.943266300000 -0.257232000000
v -0.06856316 -0.02105245 -0.8654624
vt 0.139627 -0.863531
vn -0.168582900000 0.963487500000 -0.208018200000
v 0.1568407 0.02770327 -0.8161356
vt 0.028781 -0.922026
vn -0.216636000000 0.958653100000 -0.184534700000
v -0.1430478 0.0443142 -1.079547
vt 0.250606 -0.924866
vn -0.138904600000 0.954681700000 -0.263226900000
v -0.2286206 -0.0001559125 -0.9767281
vt 0.246968 -0.855207
vn -0.073174340000 0.971185000000 -0.226815400000
v -0.1169936 -0.03537929 -0.8124306
vt 0.139889 -0.827847
vn -0.077264860000 0.992206600000 -0.097756060000
v 0.02147872 -0.02281671 -0.6852925
vt 0.036174 -0.82602
vn -0.115753300000 0.992709200000 -0.033610050000
v -0.3323055 -0.02462641 -0.8462541
vt 0.241211 -0.771729
vn 0.048682790000 0.995567400000 -0.080470390000
v -0.3158748 -0.01864077 -0.5944662
vt 0.141243 -0.683109
vn 0.140167500000 0.977903900000 0.155103300000
v -0.342985 -0.006991171 -0.5647457
vt 0.141342 -0.662522
vn 0.201214400000 0.958112500000 0.203796900000
v -0.1671286 -0.003849056 -0.4709426
vt 0.034462 -0.684119
vn 0.059245920000 0.983757500000 0.169443600000
v -0.2439214 -0.0362038 -0.6733535
vt 0.140893 -0.735914
vn 0.069979470000 0.993519700000 0.089562680000
v -0.06048069 -0.02187686 -0.6043422
vt 0.039745 -0.769051
vn -0.038301330000 0.995900600000 0.081944850000
v -0.1948149 -0.04431376 -0.7271742
vt 0.140551 -0.77157
vn 0.005840790000 0.999878100000 0.014481390000
v -0.4833557 0.002314097 -0.7021025
vt 0.249766 -0.66706
vn 0.244042200000 0.955191400000 0.167489800000
v -0.4249059 -0.02000593 -0.7557274
vt 0.245613 -0.707568
vn 0.148807400000 0.986211700000 0.072408500000
v -0.5424485 0.03254937 -0.6419169
vt 0.251872 -0.622977
vn 0.267604500000 0.944827400000 0.188915500000
g 6HU_BARRACKS_SCATTEREDPAPERS02
o 6HU_BARRACKS_SCATTEREDPAPERS020
usemtl tex_936392
s 1
f 1/1/1 2/2/2 3/3/3
f 4/4/4 5/5/5 6/6/6
f 7/7/7 8/8/8 9/9/9
f 10/10/10 8/8/8 7/7/7
f 6/6/6 11/11/11 7/7/7
f 7/7/7 9/9/9 6/6/6
f 6/6/6 9/9/9 4/4/4
f 8/8/8 4/4/4 9/9/9
f 8/8/8 12/12/12 4/4/4
f 13/13/13 14/14/14 15/15/15
f 16/16/16 17/17/17 18/18/18
f 16/16/16 19/19/19 17/17/17
f 17/17/17 20/20/20 21/21/21
f 21/21/21 18/18/18 17/17/17
f 15/15/15 18/18/18 21/21/21
f 15/15/15 16/16/16 18/18/18
f 14/14/14 16/16/16 15/15/15
f 22/22/22 23/23/23 24/24/24
f 25/25/25 26/26/26 27/27/27
f 28/28/28 26/26/26 25/25/25
f 24/24/24 29/29/29 25/25/25
f 25/25/25 27/27/27 24/24/24
f 24/24/24 27/27/27 22/22/22
f 26/26/26 22/22/22 27/27/27
f 26/26/26 30/30/30 22/22/22
f 31/31/31 32/32/32 33/33/33
f 34/34/34 35/35/35 36/36/36
f 34/34/34 36/36/36 37/37/37
f 37/37/37 38/38/38 34/34/34
f 38/38/38 37/37/37 39/39/39
f 39/39/39 40/40/40 38/38/38
f 39/39/39 41/41/41 33/33/33
f 33/33/33 40/40/40 39/39/39
f 33/33/33 32/32/32 40/40/40
f 32/32/32 38/38/38 40/40/40
f 32/32/32 42/42/42 38/38/38
f 42/42/42 34/34/34 38/38/38
f 34/34/34 42/42/42 13/13/13
f 13/13/13 35/35/35 34/34/34
f 15/15/15 35/35/35 13/13/13
f 35/35/35 15/15/15 36/36/36
f 21/21/21 36/36/36 15/15/15
f 43/43/43 44/44/44 45/45/45
f 46/46/46 47/47/47 48/48/48
f 46/46/46 49/49/49 47/47/47
f 49/49/49 50/50/50 47/47/47
f 50/50/50 49/49/49 51/51/51
f 51/51/51 52/52/52 50/50/50
f 53/53/53 46/46/46 45/45/45
f 45/45/45 46/46/46 48/48/48
f 45/45/45 48/48/48 43/43/43
f 43/43/43 48/48/48 47/47/47
f 47/47/47 54/54/54 43/43/43
f 54/54/54 47/47/47 50/50/50
f 50/50/50 11/11/11 54/54/54
f 50/50/50 52/52/52 11/11/11
f 52/52/52 7/7/7 11/11/11
f 7/7/7 52/52/52 51/51/51
f 51/51/51 10/10/10 7/7/7
f 55/55/55 56/56/56 57/57/57
f 58/58/58 59/59/59 60/60/60
f 58/58/58 61/61/61 59/59/59
f 61/61/61 62/62/62 59/59/59
f 62/62/62 61/61/61 63/63/63
f 63/63/63 64/64/64 62/62/62
f 65/65/65 58/58/58 57/57/57
f 57/57/57 58/58/58 60/60/60
f 57/57/57 60/60/60 55/55/55
f 55/55/55 60/60/60 59/59/59
f 59/59/59 66/66/66 55/55/55
f 66/66/66 59/59/59 62/62/62
f 62/62/62 29/29/29 66/66/66
f 62/62/62 64/64/64 29/29/29
f 64/64/64 25/25/25 29/29/29
f 25/25/25 64/64/64 63/63/63
f 63/63/63 28/28/28 25/25/25
f 67/67/67 68/68/68 69/69/69
f 67/67/67 70/70/70 68/68/68
f 68/68/68 71/71/71 72/72/72
f 72/72/72 69/69/69 68/68/68
f 73/73/73 69/69/69 72/72/72
f 73/73/73 67/67/67 69/69/69
f 74/74/74 67/67/67 73/73/73
f 72/72/72 75/75/75 73/73/73
f 2/2/2 76/76/76 77/77/77
f 2/2/2 78/78/78 76/76/76
f 78/78/78 79/79/79 76/76/76
f 79/79/79 78/78/78 80/80/80
f 80/80/80 81/81/81 79/79/79
f 3/3/3 2/2/2 77/77/77
f 3/3/3 77/77/77 82/82/82
f 82/82/82 77/77/77 76/76/76
f 76/76/76 83/83/83 82/82/82
f 83/83/83 76/76/76 79/79/79
f 79/79/79 75/75/75 83/83/83
f 79/79/79 81/81/81 75/75/75
f 81/81/81 73/73/73 75/75/75
f 73/73/73 81/81/81 80/80/80
f 80/80/80 74/74/74 73/73/73
f 82/82/82 84/84/84 3/3/3
