# Written by Marlamin's WoW Exporter. Original file: WORLD\EXPANSION02\DOODADS\ICECROWN\LIGHTS\ICECROWN_REDGLOW_01.M2
mtllib ICECROWN_REDGLOW_01.mtl
v -0.01447691 3.529374 3.800894
vt 0 0
vn 0.999991600000 0.004101725000 0.000000035573
v 0.0144776 -3.529374 3.800895
vt 0 -1
vn 0.999991600000 0.004101725000 0.000000035573
v -0.0144776 3.529374 -3.800895
vt 1 0
vn 0.999991600000 0.004101725000 0.000000035573
v 0.01447691 -3.529374 -3.800894
vt 1 -1
vn 0.999991600000 0.004101725000 0.000000035573
g ICECROWN_REDGLOW_01
o ICECROWN_REDGLOW_010
usemtl tex_202431
s 1
f 1/1/1 2/2/2 3/3/3
f 4/4/4 3/3/3 2/2/2
