# Written by Marlamin's WoW Exporter. Original file: WORLD\EXPANSION04\DOODADS\PANDAREN\PLAYERFARM\PA_FARMSOIL_UNTILLED.M2
mtllib PA_FARMSOIL_UNTILLED.mtl
v -1.727895 -0.00418059 -1.235954
vt 0.405969 -0.06582618
vn -0.227893300000 0.967685000000 0.107936400000
v -1.791548 -0.004181173 -0.6652924
vt 0.3112502 -0.01552939
vn -0.298061800000 0.954031900000 0.031339960000
v -1.35055 0.1134014 -0.477462
vt 0.2933463 -0.1319241
vn -0.407019800000 0.912690900000 0.036471060000
v 0.6936358 0.4062964 0.7586144
vt 0.301816 -0.7691547
vn 0.057064410000 0.997254700000 -0.047187820000
v 0.9258891 0.3179453 0.6628926
vt 0.3211685 -0.8183463
vn 0.055656010000 0.997302400000 -0.047858110000
v 0.7252815 0.390831 0.4523089
vt 0.3421004 -0.7470632
vn 0.045422280000 0.998819600000 -0.017208020000
v 0.4198915 0.5008507 0.6204891
vt 0.3052786 -0.6891858
vn 0.010365780000 0.999689700000 -0.022651880000
v 0.384616 0.4237365 0.7998443
vt 0.2810496 -0.7026408
vn 0.002684005000 0.998396000000 -0.056553670000
v 0.5808623 0.4841096 0.7661518
vt 0.2974371 -0.7275428
vn 0.038954460000 0.997673800000 -0.055942160000
v 0.5178475 0.3738293 0.8756528
vt 0.2782901 -0.742596
vn 0.028849070000 0.996814700000 -0.074352090000
v 0.7548847 0.2223855 0.9179931
vt 0.2693503 -0.8241941
vn 0.047117770000 0.996282300000 -0.072121210000
v 0.6250141 0.4837433 0.6053327
vt 0.3175346 -0.7348084
vn 0.042243030000 0.998908600000 -0.019927780000
v 0.2967912 0.3710309 0.4808145
vt 0.3058755 -0.6538072
vn 0.000734142700 0.999868500000 -0.016197750000
v 0.2259784 0.2787298 0.8395631
vt 0.2571373 -0.6724828
vn -0.002803310000 0.998297900000 -0.058253810000
v 0.4498154 0.2035712 1.038246
vt 0.247048 -0.7534559
vn 0.024890240000 0.996923800000 -0.074319970000
v 0.202527 0.5260372 -0.4229446
vt 0.301816 -0.7691547
vn 0.441087600000 0.783198500000 0.438225700000
v 0.3657508 0.3856154 -0.5487999
vt 0.3211685 -0.8183463
vn 0.417198800000 0.825546900000 0.380023100000
v 0.09821405 0.3872139 -0.6635197
vt 0.3421004 -0.7470632
vn 0.016292730000 0.748548400000 0.662880000000
v -0.09349246 0.5066364 -0.4481384
vt 0.3052786 -0.6891858
vn -0.501631400000 0.718220900000 0.482208200000
v -0.03882435 0.5926784 -0.2718496
vt 0.2810496 -0.7026408
vn -0.308519000000 0.938995300000 -0.151999500000
v 0.06412014 0.6219677 -0.4059393
vt 0.2974371 -0.7275428
vn 0.064705980000 0.962091200000 0.264940800000
v 0.1092891 0.5713404 -0.2517718
vt 0.2782901 -0.742596
vn 0.287619200000 0.931936000000 -0.220840400000
v 0.3415448 0.440845 -0.2536612
vt 0.2693503 -0.8241941
vn 0.534314700000 0.844882000000 -0.026120520000
v 0.07246161 0.5033827 -0.5373127
vt 0.3175346 -0.7348084
vn 0.014820170000 0.739165400000 0.673360900000
v -0.2387109 0.3995699 -0.4375298
vt 0.3058755 -0.6538072
vn -0.594210000000 0.711102600000 0.375829100000
v -0.1368628 0.5097244 -0.1124457
vt 0.2571373 -0.6724828
vn -0.354769900000 0.914750700000 -0.193311800000
v 0.1407287 0.5129192 -0.0320567
vt 0.247048 -0.7534559
vn 0.184342000000 0.956089100000 -0.227841200000
v -0.5887433 0.4901309 -0.4104426
vt 0.2190701 -0.4735298
vn -0.358827100000 0.895662400000 0.262739300000
v -0.4711355 0.4876755 -0.4196335
vt 0.220787 -0.5051117
vn 0.183855600000 0.936316500000 0.299179900000
v -0.5319284 0.4365466 -0.50208
vt 0.2343915 -0.4855636
vn -0.131540800000 0.743904500000 0.655212300000
v -0.662656 0.3966401 -0.4519606
vt 0.228664 -0.4449002
vn -0.627175200000 0.638760100000 0.445686800000
v -0.5457962 0.4904376 -0.3080412
vt 0.2047531 -0.4823887
vn -0.126915000000 0.972302700000 -0.196265200000
v -0.6592403 0.4386807 -0.3201553
vt 0.2083368 -0.4467659
vn -0.618207800000 0.783618700000 -0.061326320000
v -0.7861127 0.2173307 -0.5275885
vt 0.2443406 -0.4003283
vn -0.638450000000 0.626935800000 0.446467400000
v -0.4652209 0.3180525 -0.6416371
vt 0.2570185 -0.5001974
vn -0.171213100000 0.711762200000 0.681234600000
v -0.3275578 0.4519075 -0.3962516
vt 0.2171838 -0.5448173
vn 0.254580300000 0.935019400000 0.246835000000
v -0.4849508 0.4566507 -0.164508
vt 0.1839217 -0.4968938
vn -0.124924800000 0.953005900000 -0.275995500000
v -0.7746472 0.3285066 -0.182375
vt 0.191063 -0.4060043
vn -0.657407000000 0.751396100000 -0.056743950000
v 0.09429704 0.4441853 -0.3967669
vt 0.3231328 -0.5375806
vn -0.038685920000 0.987614400000 0.152056600000
v 0.7027138 0.4173466 -0.07781492
vt 0.2888523 -0.6904662
vn 0.461225900000 0.884143700000 0.074569780000
v 0.25506 0.4794858 -0.6541579
vt 0.362899 -0.5933458
vn 0.118378700000 0.964282200000 0.236952200000
v -0.4292805 0.250235 -0.9074746
vt 0.3922856 -0.4155436
vn -0.092117590000 0.972912400000 0.212027900000
v -0.3447974 0.5866683 -0.1373998
vt 0.2660372 -0.4096215
vn -0.291685300000 0.954597000000 0.060533040000
v -0.7172683 0.3541034 -0.281267
vt 0.2798566 -0.3063142
vn -0.396921600000 0.903597800000 0.161134500000
v -0.9232295 0.3015793 0.0318439
vt 0.2230213 -0.2333181
vn -0.416006000000 0.907261100000 -0.061776780000
v -1.042223 0.2744803 -0.491137
vt 0.3038878 -0.2278457
vn -0.361931000000 0.927934300000 0.089128260000
v -1.302499 0.1133742 -0.9082406
vt 0.3649331 -0.1700193
vn -0.328660300000 0.935948500000 0.126423500000
v -1.019069 -0.004169729 -1.624379
vt 0.4920784 -0.2853303
vn -0.206903600000 0.935919900000 0.285034900000
v -0.767424 0.2213154 -1.201453
vt 0.4268894 -0.3387722
vn -0.140740700000 0.967215100000 0.211393100000
v -0.1853018 -0.004156854 -1.566424
vt 0.5 -0.5215064
vn 0.069975850000 0.971598500000 0.226052600000
v -0.1380343 0.1133742 -1.157704
vt 0.4429363 -0.514582
vn 0.074271740000 0.955129300000 0.286725800000
v 0.5082939 -0.004146152 -1.295635
vt 0.4854357 -0.7088038
vn 0.136008700000 0.975838600000 0.170998900000
v 0.3855444 0.1133742 -0.9532924
vt 0.4263946 -0.656543
vn 0.249165700000 0.919250000000 0.304788400000
v 1.303737 -0.004133966 -0.6162613
vt 0.3969659 -0.9015489
vn 0.238621000000 0.964397000000 0.114011100000
v 0.9860047 0.1133742 -0.4404494
vt 0.3588592 -0.8025741
vn 0.372033300000 0.916419800000 0.147532800000
v 1.731325 -0.004127397 0.07640857
vt 0.2949551 -0.9858587
vn 0.288328600000 0.956900700000 0.034752190000
v 1.308781 0.1133742 0.08243012
vt 0.2818387 -0.8644176
vn 0.353756000000 0.933515100000 0.058363080000
v 1.793547 -0.003863335 0.5438659
vt 0.219021 -0.9789442
vn 0.327317000000 0.944610300000 -0.023977790000
v 1.760376 -0.003686905 1.008415
vt 0.1408732 -0.9432241
vn 0.316721200000 0.941660000000 -0.113860000000
v 1.35575 0.1301013 0.4353017
vt 0.2246096 -0.8580701
vn 0.432264400000 0.901545600000 -0.019054290000
v 1.005686 0.3148246 0.3950107
vt 0.2228077 -0.7528167
vn 0.453673100000 0.890953000000 -0.019581400000
v 1.41439 -0.004132271 1.28924
vt 0.08193442 -0.8307115
vn 0.208944600000 0.958597700000 -0.193475100000
v 1.33071 0.1413488 0.7859791
vt 0.1656165 -0.8301839
vn 0.416209100000 0.898788800000 -0.137654200000
v 0.8845568 -0.00402334 1.540295
vt 0.02571998 -0.6635454
vn 0.166541400000 0.963765100000 -0.208376600000
v 1.069534 0.1133742 0.9979665
vt 0.1193016 -0.7475442
vn 0.416121400000 0.826774600000 -0.378532400000
v 0.9312592 0.3456606 0.8943473
vt 0.1429704 -0.6998577
vn 0.387987000000 0.856334900000 -0.340817600000
v 0.6044315 0.4330798 0.6644567
vt 0.1677023 -0.6245118
vn 0.120359400000 0.958274300000 -0.259275800000
v 0.3518831 0.6694424 0.2727165
vt 0.2238768 -0.5721005
vn 0.172802600000 0.976778400000 -0.126661900000
v -0.1367795 0.3655116 0.4335032
vt 0.1784428 -0.4268101
vn -0.162029800000 0.969024300000 -0.186381900000
v 0.3895646 -0.004148006 1.644874
vt -0.005341306 -0.5145215
vn 0.016441000000 0.976038500000 -0.216975700000
v 0.669576 0.1208156 1.187482
vt 0.07819462 -0.6204478
vn 0.177632100000 0.939473700000 -0.292977900000
v 0.4136138 0.2318227 0.9416559
vt 0.1117025 -0.5602643
vn 0.120638900000 0.964482400000 -0.234989300000
v -0.2875821 -0.004158497 1.378415
vt 0.01702492 -0.3329085
vn -0.141008200000 0.969157000000 -0.202116900000
v 0.2959184 0.1133742 1.266426
vt 0.05417433 -0.5073234
vn 0.038988650000 0.953240500000 -0.299687200000
v -0.08665972 0.3887717 0.8417278
vt 0.1203643 -0.4244959
vn -0.050536780000 0.974594300000 -0.218201800000
v -0.9474829 -0.004168617 0.8925561
vt 0.07727914 -0.167963
vn -0.222427700000 0.959842100000 -0.170965100000
v -0.2152428 0.1133742 1.065283
vt 0.07072925 -0.369402
vn -0.237092200000 0.915469500000 -0.325119800000
v -1.367396 -0.00417508 0.5092508
vt 0.130274 -0.06939816
vn -0.266663100000 0.956335200000 -0.119639800000
v -0.6778604 0.1133742 0.7288073
vt 0.1122893 -0.2536699
vn -0.357482600000 0.886814300000 -0.292859400000
v -1.679429 -0.004179796 0.01982983
vt 0.2027566 -0.009211004
vn -0.300198000000 0.953092800000 -0.038669090000
v -1.030368 0.1133742 0.4091721
vt 0.1563725 -0.1721951
vn -0.380149400000 0.911513800000 -0.156936500000
v -0.6230291 0.2855882 0.5849521
vt 0.1427269 -0.2863655
vn -0.386880500000 0.892177800000 -0.233114300000
v -1.265915 0.1133782 0.03972008
vt 0.2112556 -0.1270556
vn -0.393366200000 0.917806700000 -0.053794390000
g PA_FARMSOIL_UNTILLED
o PA_FARMSOIL_UNTILLED0
usemtl tex_605594
s 1
f 1/1/1 2/2/2 3/3/3
f 4/4/4 5/5/5 6/6/6
f 7/7/7 8/8/8 9/9/9
f 8/8/8 10/10/10 9/9/9
f 9/9/9 10/10/10 4/4/4
f 11/11/11 4/4/4 10/10/10
f 11/11/11 5/5/5 4/4/4
f 9/9/9 12/12/12 7/7/7
f 4/4/4 12/12/12 9/9/9
f 6/6/6 12/12/12 4/4/4
f 7/7/7 12/12/12 6/6/6
f 6/6/6 13/13/13 7/7/7
f 8/8/8 7/7/7 13/13/13
f 13/13/13 14/14/14 8/8/8
f 10/10/10 8/8/8 14/14/14
f 14/14/14 15/15/15 10/10/10
f 10/10/10 15/15/15 11/11/11
f 16/16/16 17/17/17 18/18/18
f 19/19/19 20/20/20 21/21/21
f 20/20/20 22/22/22 21/21/21
f 21/21/21 22/22/22 16/16/16
f 23/23/23 16/16/16 22/22/22
f 23/23/23 17/17/17 16/16/16
f 21/21/21 24/24/24 19/19/19
f 16/16/16 24/24/24 21/21/21
f 18/18/18 24/24/24 16/16/16
f 19/19/19 24/24/24 18/18/18
f 18/18/18 25/25/25 19/19/19
f 20/20/20 19/19/19 25/25/25
f 25/25/25 26/26/26 20/20/20
f 22/22/22 20/20/20 26/26/26
f 26/26/26 27/27/27 22/22/22
f 22/22/22 27/27/27 23/23/23
f 28/28/28 29/29/29 30/30/30
f 28/28/28 30/30/30 31/31/31
f 28/28/28 32/32/32 29/29/29
f 32/32/32 28/28/28 33/33/33
f 31/31/31 33/33/33 28/28/28
f 33/33/33 31/31/31 34/34/34
f 35/35/35 34/34/34 31/31/31
f 31/31/31 30/30/30 35/35/35
f 36/36/36 35/35/35 30/30/30
f 30/30/30 29/29/29 36/36/36
f 37/37/37 36/36/36 29/29/29
f 29/29/29 32/32/32 37/37/37
f 38/38/38 37/37/37 32/32/32
f 32/32/32 33/33/33 38/38/38
f 34/34/34 38/38/38 33/33/33
f 39/39/39 40/40/40 41/41/41
f 39/39/39 41/41/41 42/42/42
f 42/42/42 43/43/43 39/39/39
f 42/42/42 44/44/44 43/43/43
f 43/43/43 44/44/44 45/45/45
f 45/45/45 44/44/44 46/46/46
f 45/45/45 46/46/46 3/3/3
f 46/46/46 47/47/47 3/3/3
f 3/3/3 47/47/47 1/1/1
f 48/48/48 1/1/1 47/47/47
f 47/47/47 49/49/49 48/48/48
f 50/50/50 48/48/48 49/49/49
f 49/49/49 51/51/51 50/50/50
f 52/52/52 50/50/50 51/51/51
f 51/51/51 53/53/53 52/52/52
f 54/54/54 52/52/52 53/53/53
f 53/53/53 55/55/55 54/54/54
f 56/56/56 54/54/54 55/55/55
f 55/55/55 57/57/57 56/56/56
f 58/58/58 56/56/56 57/57/57
f 44/44/44 42/42/42 46/46/46
f 49/49/49 47/47/47 46/46/46
f 46/46/46 42/42/42 49/49/49
f 42/42/42 51/51/51 49/49/49
f 51/51/51 42/42/42 41/41/41
f 41/41/41 53/53/53 51/51/51
f 55/55/55 53/53/53 41/41/41
f 59/59/59 58/58/58 60/60/60
f 57/57/57 60/60/60 58/58/58
f 60/60/60 57/57/57 61/61/61
f 57/57/57 55/55/55 61/61/61
f 61/61/61 55/55/55 40/40/40
f 41/41/41 40/40/40 55/55/55
f 62/62/62 59/59/59 63/63/63
f 60/60/60 63/63/63 59/59/59
f 61/61/61 63/63/63 60/60/60
f 64/64/64 62/62/62 65/65/65
f 63/63/63 65/65/65 62/62/62
f 66/66/66 65/65/65 63/63/63
f 61/61/61 66/66/66 63/63/63
f 67/67/67 66/66/66 61/61/61
f 61/61/61 40/40/40 67/67/67
f 68/68/68 67/67/67 40/40/40
f 40/40/40 39/39/39 68/68/68
f 43/43/43 68/68/68 39/39/39
f 45/45/45 69/69/69 43/43/43
f 68/68/68 43/43/43 69/69/69
f 70/70/70 64/64/64 71/71/71
f 65/65/65 71/71/71 64/64/64
f 71/71/71 65/65/65 66/66/66
f 66/66/66 72/72/72 71/71/71
f 67/67/67 72/72/72 66/66/66
f 73/73/73 70/70/70 74/74/74
f 71/71/71 74/74/74 70/70/70
f 75/75/75 74/74/74 71/71/71
f 71/71/71 72/72/72 75/75/75
f 69/69/69 75/75/75 72/72/72
f 72/72/72 67/67/67 69/69/69
f 69/69/69 67/67/67 68/68/68
f 76/76/76 73/73/73 77/77/77
f 74/74/74 77/77/77 73/73/73
f 75/75/75 77/77/77 74/74/74
f 78/78/78 76/76/76 79/79/79
f 77/77/77 79/79/79 76/76/76
f 79/79/79 77/77/77 75/75/75
f 80/80/80 78/78/78 81/81/81
f 79/79/79 81/81/81 78/78/78
f 81/81/81 79/79/79 82/82/82
f 75/75/75 82/82/82 79/79/79
f 82/82/82 75/75/75 69/69/69
f 69/69/69 45/45/45 82/82/82
f 45/45/45 81/81/81 82/82/82
f 45/45/45 83/83/83 81/81/81
f 81/81/81 83/83/83 80/80/80
f 2/2/2 80/80/80 83/83/83
f 83/83/83 3/3/3 2/2/2
f 3/3/3 83/83/83 45/45/45
