# Written by Marlamin's WoW Exporter. Original file: WORLD\LORDAERON\TIRISFALGLADE\PASSIVEDOODADS\GRAVES\TIRISFALLGRAVEDIRTMOUND01.M2
mtllib TIRISFALLGRAVEDIRTMOUND01.mtl
v -2.172897 -0.5527104 0.004742219
vt 0.5031418 -0.4441676
vn -0.496688700000 0.867928700000 -0.000000028601
v -1.533613 -0.5527104 1.548112
vt -0.1484136 -0.4446418
vn -0.351211900000 0.867928700000 -0.351212000000
v -1.039619 -0.1529161 1.054118
vt -0.09055828 -0.2562388
vn -0.351211900000 0.867928700000 -0.351212000000
v -0.7041044 0.5583749 0.004742124
vt 0.2242981 -0.4735285
vn -0.559786700000 0.828636800000 -0.000000061418
v -1.474285 -0.1529161 0.004742158
vt 0.006292516 -0.2570668
vn -0.678463100000 0.734634500000 -0.000000084954
v -1.039619 -0.1529161 1.054118
vt 0.9866374 -0.2571077
vn -0.479745800000 0.734634500000 -0.479745900000
v -0.4950194 0.5583749 -0.5000338
vt 0.7701015 -0.4736089
vn -0.395829000000 0.828636800000 0.395828900000
v -1.039619 -0.1529161 -1.044634
vt 0.9872701 -0.2571077
vn -0.479746000000 0.734634500000 0.479745800000
v 0.009756577 0.5583749 -0.7091189
vt 0.2244749 -0.4735271
vn -0.000000107896 0.828636800000 0.559786700000
v 0.009756696 0.8319431 0.004742092
vt 0.4942152 -0.6908213
vn -0.000000008966 1.000000000000 -0.000000026894
v -0.4950193 0.5583749 0.5095181
vt 0.7684214 -0.4736089
vn -0.395828900000 0.828636800000 -0.395828900000
v 0.009756846 -0.1529161 1.488783
vt 0.00576126 -0.257068
vn 0.000000054422 0.734634500000 -0.678463000000
v 0.5145327 0.5583749 0.509518
vt 0.7684214 -0.4736096
vn 0.395828900000 0.828636800000 -0.395828900000
v 0.7236177 0.5583749 0.004741999
vt 0.2242981 -0.4735292
vn 0.559786600000 0.828636800000 0.000000034038
v 0.009756764 0.5583749 0.7186031
vt 0.2243246 -0.4735271
vn 0.000000082832 0.828636800000 -0.559786600000
v 0.5145326 0.5583749 -0.500034
vt 0.7701015 -0.4736096
vn 0.395828800000 0.828636800000 0.395829000000
v 0.009756457 -0.1529161 -1.479299
vt 0.006031775 -0.257068
vn -0.000000148625 0.734634500000 0.678463000000
v 1.059132 -0.1529161 -1.044634
vt 0.9872701 -0.2571079
vn 0.479745700000 0.734634600000 0.479745900000
v 1.493798 -0.1529161 0.004741898
vt 0.006292486 -0.257067
vn 0.678463000000 0.734634500000 0.000000062252
v 1.059133 -0.1529161 1.054118
vt 0.9866374 -0.2571079
vn 0.479745900000 0.734634500000 -0.479745700000
v 0.009756846 -0.1529161 1.488783
vt -0.6808138 -0.2562425
vn -0.000000014264 0.867928900000 -0.496688500000
v 0.009756874 -0.5527104 2.187397
vt -0.7961754 -0.4445869
vn 0.000000031836 0.867928900000 -0.496688500000
v 1.059133 -0.1529161 1.054118
vt -0.09055828 -0.2562376
vn 0.351212100000 0.867928700000 -0.351212000000
v 1.553126 -0.5527104 1.548111
vt -0.1484136 -0.4446386
vn 0.351212100000 0.867928700000 -0.351212000000
v 1.493798 -0.1529161 0.004741898
vt 0.5024776 -0.2560951
vn 0.496688600000 0.867928800000 -0.000000027942
v 2.192411 -0.5527104 0.004741836
vt 0.5031416 -0.4441644
vn 0.496688600000 0.867928800000 0.000000021463
v 1.059132 -0.1529161 -1.044634
vt 1.08709 -0.2562376
vn 0.351211900000 0.867928700000 0.351212100000
v 1.553126 -0.5527104 -1.538628
vt 1.145265 -0.4446386
vn 0.351212000000 0.867928700000 0.351212100000
v 0.009756457 -0.1529161 -1.479299
vt 1.648433 -0.2562425
vn -0.000000091621 0.867928700000 0.496688800000
v 0.009756302 -0.5527104 -2.177912
vt 1.762678 -0.4445869
vn -0.000000084667 0.867928700000 0.496688800000
v -1.039619 -0.1529161 -1.044634
vt 1.08709 -0.2562388
vn -0.351212100000 0.867928700000 0.351212000000
v -1.533613 -0.5527104 -1.538627
vt 1.145265 -0.4446418
vn -0.351212100000 0.867928700000 0.351212000000
v -1.474285 -0.1529161 0.004742158
vt 0.5024778 -0.2560963
vn -0.496688700000 0.867928700000 -0.000000030080
g TIRISFALLGRAVEDIRTMOUND01
o TIRISFALLGRAVEDIRTMOUND010
usemtl tex_204111
s 1
f 1/1/1 2/2/2 3/3/3
f 4/4/4 5/5/5 6/6/6
f 7/7/7 5/5/5 4/4/4
f 7/7/7 8/8/8 5/5/5
f 9/9/9 8/8/8 7/7/7
f 10/10/10 9/9/9 7/7/7
f 10/10/10 7/7/7 4/4/4
f 10/10/10 4/4/4 11/11/11
f 4/4/4 6/6/6 11/11/11
f 11/11/11 6/6/6 12/12/12
f 10/10/10 13/13/13 14/14/14
f 10/10/10 15/15/15 13/13/13
f 10/10/10 11/11/11 15/15/15
f 10/10/10 16/16/16 9/9/9
f 10/10/10 14/14/14 16/16/16
f 9/9/9 17/17/17 8/8/8
f 16/16/16 17/17/17 9/9/9
f 16/16/16 18/18/18 17/17/17
f 14/14/14 18/18/18 16/16/16
f 14/14/14 19/19/19 18/18/18
f 13/13/13 19/19/19 14/14/14
f 13/13/13 20/20/20 19/19/19
f 15/15/15 20/20/20 13/13/13
f 15/15/15 12/12/12 20/20/20
f 11/11/11 12/12/12 15/15/15
f 21/21/21 3/3/3 2/2/2
f 2/2/2 22/22/22 21/21/21
f 23/23/23 21/21/21 22/22/22
f 22/22/22 24/24/24 23/23/23
f 25/25/25 23/23/23 24/24/24
f 24/24/24 26/26/26 25/25/25
f 27/27/27 25/25/25 26/26/26
f 26/26/26 28/28/28 27/27/27
f 29/29/29 27/27/27 28/28/28
f 28/28/28 30/30/30 29/29/29
f 31/31/31 29/29/29 30/30/30
f 30/30/30 32/32/32 31/31/31
f 33/33/33 31/31/31 32/32/32
f 32/32/32 1/1/1 33/33/33
f 3/3/3 33/33/33 1/1/1
